<svg width="607" height="360" viewBox="0 0 607 360" fill="none" xmlns="http://www.w3.org/2000/svg">
<g filter="url(#filter0_d)">
<path d="M309.753 349.21C310.966 342.846 314.732 337.011 320.02 333.286" stroke="#FFB700" stroke-width="0.779" stroke-miterlimit="10"/>
<path d="M309.589 351C309.817 345.686 311.868 332.893 316.719 324.885" stroke="#FFB700" stroke-width="0.779" stroke-miterlimit="10"/>
<path d="M309.662 350.343C310.501 340.865 310.428 330.391 308.95 320.986" stroke="#FFB700" stroke-width="0.779" stroke-miterlimit="10"/>
<path d="M320.793 330.811L320.793 330.811C320.746 330.894 320.699 330.977 320.652 331.061C319.993 332.226 319.334 333.389 318.522 334.489C318.735 334.418 318.96 334.332 319.194 334.238C319.312 334.191 319.434 334.141 319.558 334.091C319.815 333.986 320.08 333.878 320.331 333.784C320.704 333.645 321.091 333.52 321.452 333.467L321.452 333.467C323.126 333.221 324.835 333.288 326.477 333.502L326.477 333.502C327.758 333.67 329.036 333.923 330.293 334.173C330.701 334.254 331.108 334.335 331.511 334.412C333.171 334.729 334.804 334.992 336.45 335.014L336.45 335.014C337.384 335.027 338.376 334.905 339.214 334.583C340.049 334.261 340.693 333.756 341.019 333.019L341.02 333.018C341.559 331.812 341.004 330.222 339.88 329.287L339.879 329.286C338.766 328.353 337.24 327.982 335.665 327.83L335.665 327.83C335.092 327.774 334.519 327.745 333.932 327.715C333.715 327.704 333.497 327.693 333.276 327.681C332.466 327.635 331.636 327.57 330.814 327.413L330.813 327.412C330.322 327.317 329.837 327.191 329.366 327.065C329.291 327.045 329.217 327.025 329.144 327.005C328.747 326.898 328.361 326.794 327.975 326.706C327.062 326.497 326.206 326.391 325.368 326.554L320.793 330.811ZM320.793 330.811L320.794 330.809M320.793 330.811L320.794 330.809M320.794 330.809C321.915 328.811 323.359 326.945 325.368 326.554L320.794 330.809Z" fill="#FFB700" stroke="#FFB700"/>
<path d="M316.107 326.007C316.732 325.484 317.324 324.836 317.937 324.143C318.017 324.053 318.096 323.963 318.176 323.872C318.913 323.036 319.687 322.157 320.547 321.472C322.904 319.588 325.759 318.133 328.835 317.895L316.107 326.007ZM316.107 326.007C316.138 325.827 316.185 325.618 316.249 325.381C316.468 324.575 316.856 323.547 317.3 322.485C317.973 320.877 318.75 319.246 319.223 318.253C319.376 317.934 319.496 317.68 319.572 317.515M316.107 326.007L319.572 317.515M319.572 317.515C319.572 317.515 319.572 317.515 319.572 317.516L319.118 317.306L319.572 317.514C319.572 317.515 319.572 317.515 319.572 317.515ZM344.001 312.23L344 312.229C343.352 311.134 342.032 310.513 340.646 310.304L344.001 312.23ZM344.001 312.23C344.501 313.07 344.528 314.097 344.185 315.086M344.001 312.23L344.185 315.086M344.185 315.086C343.841 316.077 343.138 316.983 342.257 317.541M344.185 315.086L342.257 317.541M342.257 317.541C340.447 318.688 338.122 318.77 335.841 318.517M342.257 317.541L335.841 318.517M335.841 318.517C335.18 318.444 334.544 318.35 333.899 318.254M335.841 318.517L333.899 318.254M333.899 318.254C333.409 318.182 332.913 318.109 332.397 318.043M333.899 318.254L332.397 318.043M332.397 318.043C331.234 317.895 330.044 317.799 328.836 317.894L332.397 318.043ZM316.085 326.594C316.085 326.594 316.085 326.593 316.085 326.592L316.085 326.594Z" fill="#FFB700" stroke="#FFB700"/>
<path d="M311.229 311.871L311.229 311.872C311.522 313.665 311.224 315.507 310.662 317.283C310.622 317.41 310.574 317.57 310.518 317.753C310.35 318.313 310.114 319.093 309.824 319.831C309.632 320.319 309.427 320.759 309.218 321.081C309.114 321.242 309.018 321.358 308.935 321.434C308.85 321.511 308.802 321.525 308.793 321.527L308.792 321.527C308.688 321.547 308.477 321.517 308.14 321.349C307.821 321.19 307.464 320.945 307.102 320.659C306.38 320.089 305.702 319.404 305.373 319.061C304.368 318.002 303.568 316.755 303.074 315.392L303.073 315.39C302.495 313.816 302.295 312.134 302.095 310.381C302.091 310.343 302.087 310.304 302.082 310.266C301.889 308.569 301.689 306.807 301.106 305.134L301.106 305.134C300.443 303.239 299.314 301.545 298.232 299.922C297.948 299.496 297.667 299.075 297.399 298.656C296.084 296.604 294.971 294.409 294.988 292.108C295.005 289.802 296.47 287.482 298.57 287.109L298.571 287.109C299.956 286.86 301.429 287.442 302.648 288.367L302.649 288.367C304.372 289.668 305.63 291.57 306.168 293.671C306.491 294.942 306.554 296.265 306.616 297.647L306.618 297.703C306.679 299.05 306.741 300.455 307.079 301.821C307.498 303.534 308.329 305.106 309.126 306.612C309.186 306.727 309.247 306.841 309.307 306.955C310.168 308.589 310.952 310.159 311.229 311.871Z" fill="#FFB700" stroke="#FFB700"/>
<path d="M309.57 349.448C308.95 341.075 306.798 331.615 302.121 324.648" stroke="#FFB700" stroke-width="0.779" stroke-miterlimit="10"/>
<path d="M300.993 318.35L300.993 318.352C301.663 320.22 302.076 322.177 302.421 324.15L302.422 324.151C302.44 324.255 302.472 324.388 302.503 324.52C302.515 324.571 302.526 324.621 302.537 324.669C302.581 324.859 302.62 325.052 302.642 325.236C302.663 325.424 302.662 325.573 302.64 325.681C302.62 325.784 302.589 325.81 302.58 325.816L302.58 325.816C302.576 325.82 302.539 325.846 302.411 325.827C302.282 325.808 302.116 325.749 301.925 325.65C301.546 325.456 301.175 325.165 300.987 324.998C300.651 324.69 300.353 324.334 300.054 323.946C299.949 323.809 299.839 323.663 299.728 323.514C299.535 323.258 299.336 322.991 299.135 322.744L299.135 322.744C296.423 319.409 292.14 317.806 288.003 317.213C285.933 316.916 283.851 316.838 281.785 316.805C281.239 316.797 280.695 316.791 280.153 316.785C278.634 316.769 277.128 316.754 275.622 316.67L275.619 316.67C274.682 316.624 273.838 316.522 273.213 316.078C272.397 315.494 272.057 314.299 272.307 313.209C272.556 312.131 273.299 311.177 274.215 310.39L274.215 310.39C276.238 308.651 278.925 307.774 281.636 307.597C284.348 307.419 287.087 307.907 289.762 308.631L289.762 308.631C292.34 309.328 294.853 310.264 296.829 311.927C298.783 313.578 300.118 315.884 300.993 318.35ZM302.986 324.389C302.956 324.264 302.93 324.153 302.914 324.063L300.652 325.369C301.063 325.734 302.285 326.657 302.877 326.218C303.336 325.879 303.125 324.98 302.986 324.389Z" fill="#FFB700" stroke="#FFB700"/>
<path d="M309.397 350.343C309.033 343.038 305.75 335.916 300.443 330.893" stroke="#FFB700" stroke-width="0.779" stroke-miterlimit="10"/>
<path d="M301.511 331.408C301.296 331.019 301.077 330.542 300.882 330.117C300.688 329.696 300.518 329.325 300.397 329.14M301.511 331.408L291.835 324.392C293.887 324.967 296.011 325.616 297.899 326.62L297.899 326.62C298.036 326.693 298.172 326.766 298.309 326.848C299.23 327.369 299.823 328.264 300.397 329.14M301.511 331.408C301.29 331.333 301.067 331.266 300.841 331.204M301.511 331.408L301.173 331.823M300.397 329.14L299.979 329.414M300.397 329.14L299.979 329.414C299.979 329.414 299.979 329.414 299.979 329.414M300.841 331.204C300.949 331.42 301.06 331.633 301.173 331.823M300.841 331.204C298.373 330.528 295.657 330.553 293.281 330.576L293.253 330.576M300.841 331.204C300.807 331.135 300.773 331.065 300.74 330.996C300.631 330.77 300.524 330.536 300.425 330.32C300.378 330.218 300.333 330.119 300.29 330.028C300.15 329.726 300.046 329.517 299.979 329.414M301.173 331.823C298.667 331.028 295.819 331.052 293.257 331.076C290.066 331.103 286.874 331.697 283.893 332.848C283.514 332.995 283.137 333.152 282.759 333.309C281.271 333.928 279.775 334.55 278.175 334.637C277.063 334.692 275.732 334.327 275.394 333.258L301.173 331.823ZM293.253 330.576L291.7 324.874C293.751 325.449 295.829 326.085 297.664 327.062L297.898 326.621L297.663 327.061C297.802 327.135 297.927 327.202 298.052 327.277L298.051 327.277L298.063 327.284C298.861 327.735 299.393 328.52 299.979 329.414M293.253 330.576C293.253 330.576 293.253 330.576 293.253 330.576L293.257 331.075L293.253 330.576ZM285.83 324.153C287.719 323.786 289.692 324.311 291.7 324.874L285.83 324.153ZM278.149 334.138C277.65 334.162 277.118 334.09 276.689 333.909C276.265 333.729 275.983 333.462 275.872 333.11C275.696 332.534 276 331.852 276.515 331.166L276.515 331.166L276.516 331.164C277.534 329.793 278.848 328.669 280.205 327.512C281.973 326.008 283.727 324.562 285.83 324.153L278.149 334.138Z" fill="#FFB700" stroke="#FFB700"/>
<path d="M531.582 320.672L531.582 320.671C533.089 319.17 533.766 317.087 534.381 315.192C534.468 314.925 534.553 314.661 534.64 314.404C535.36 312.259 536.383 310.159 538.204 309.28C540.312 308.266 542.757 309.246 544.846 310.592C545.084 310.746 545.326 310.906 545.572 311.068C546.383 311.603 547.236 312.165 548.116 312.615C549.277 313.207 550.54 313.634 551.937 313.585C553.044 313.545 554.11 313.204 555.102 312.88L555.175 312.856C556.162 312.534 557.079 312.235 558.009 312.168C560.62 311.992 562.888 313.665 565.055 315.418L565.055 315.419C566.627 316.687 568.11 317.953 568.598 319.728L568.599 319.728C569.189 321.872 568.098 324.45 566.234 326.005L566.233 326.006C564.378 327.563 561.912 328.21 559.513 328.263L559.512 328.263C559.223 328.27 558.92 328.272 558.608 328.273C557.754 328.277 556.836 328.281 555.978 328.401C554.785 328.568 553.605 328.968 552.707 329.962L552.706 329.962C551.83 330.932 551.53 332.152 551.309 333.294C551.274 333.476 551.241 333.655 551.208 333.832C551.028 334.806 550.862 335.705 550.453 336.506C549.479 338.399 547.19 339.421 545.046 339.412C542.907 339.403 540.891 338.594 538.821 337.763L538.765 337.74C536.706 336.914 534.458 336.047 532.056 336.153C529.835 336.249 527.704 337.177 525.696 338.051C525.307 338.221 524.923 338.388 524.544 338.547L524.543 338.547C523.507 338.983 522.075 339.571 520.712 339.796C519.327 340.025 518.21 339.851 517.576 339.016L517.574 339.014C517.294 338.649 517.143 338.139 517.113 337.497C517.083 336.857 517.176 336.127 517.343 335.367C517.668 333.893 518.255 332.391 518.662 331.345C518.676 331.312 518.688 331.278 518.701 331.246C519.788 328.472 521.597 325.89 524.101 324.458C524.987 323.952 525.942 323.593 526.935 323.22C527.248 323.103 527.565 322.984 527.884 322.858C529.19 322.346 530.511 321.733 531.582 320.672Z" fill="#FFB700" stroke="#FFB700"/>
<path d="M517.615 339.072C529.752 328.635 543.913 321.723 559.196 318.783" stroke="white" stroke-width="0.7047" stroke-miterlimit="10" stroke-linecap="round" stroke-linejoin="round"/>
<path d="M529.615 323.02C529.898 319.577 529.251 315.989 530.381 312.729C532.396 306.921 539.381 303.89 541.132 298C543.229 290.96 536.828 283.774 537.941 276.515C538.406 273.456 540.166 270.762 541.26 267.868C542.354 264.973 542.637 261.348 540.512 259.093C538.287 256.737 534.248 257.011 531.603 258.892C528.959 260.773 527.436 263.823 526.196 266.827C524.965 269.831 523.88 272.972 521.792 275.465C517.989 280.003 511.15 281.994 509.071 287.536C506.956 293.179 510.959 299.151 511.67 305.132C512.208 309.661 510.831 314.172 509.6 318.573C508.378 322.974 507.293 327.631 508.415 332.05C509.91 337.94 515.208 341.693 520.287 337.912C525.311 334.196 529.096 329.493 529.615 323.02Z" fill="#FFB700"/>
<path d="M517.068 339.355C515.053 318.335 519.667 295.535 530.445 277.382" stroke="white" stroke-width="1.1364" stroke-miterlimit="10" stroke-linecap="round" stroke-linejoin="round"/>
<path d="M503.646 331.429C501.43 328.297 500.162 324.38 497.153 321.997C493.706 319.258 488.928 319.23 484.551 318.874C480.165 318.518 475.223 317.276 473.19 313.368C472.077 311.222 472.077 308.675 471.302 306.392C470.445 303.881 468.694 301.799 467.463 299.452C466.241 297.106 465.594 294.12 467.016 291.883C468.457 289.618 471.612 288.952 474.193 289.682C476.773 290.413 478.889 292.23 480.822 294.092C482.755 295.955 484.643 297.946 487.023 299.169C490.971 301.187 495.658 300.813 500.089 300.621C504.521 300.438 509.354 300.621 512.783 303.452C515.6 305.78 516.886 309.442 518.035 312.921C519.694 317.897 521.39 322.855 523.004 327.85C523.998 330.918 525.895 335.62 522.704 338.031C517.077 342.277 506.892 336.004 503.646 331.429Z" fill="#FFB700"/>
<path d="M520.925 338.214C513.886 321.851 498.986 307.917 481.15 301.772" stroke="white" stroke-width="0.8174" stroke-miterlimit="10" stroke-linecap="round" stroke-linejoin="round"/>
<path d="M115.359 337.462C117.374 334.458 118.541 330.605 121.249 328.404C124.359 325.893 128.635 326.222 132.574 326.176C136.505 326.14 140.945 325.254 142.805 321.456C143.827 319.374 143.836 316.799 144.556 314.543C145.34 312.069 146.927 310.097 148.049 307.814C149.161 305.531 149.763 302.563 148.514 300.198C147.237 297.806 144.419 296.902 142.103 297.45C139.787 297.998 137.872 299.678 136.131 301.413C134.389 303.148 132.684 305.02 130.532 306.079C126.976 307.832 122.781 307.102 118.805 306.581C114.83 306.07 110.498 305.905 107.407 308.508C104.863 310.653 103.687 314.26 102.62 317.684C101.097 322.588 99.5378 327.473 98.0515 332.395C97.1396 335.426 95.398 340.028 98.243 342.704C103.231 347.433 112.413 341.845 115.359 337.462Z" fill="#FFB700"/>
<path d="M99.8204 343.05C106.258 327.035 119.717 314.059 135.748 309.156" stroke="white" stroke-width="0.7781" stroke-miterlimit="10" stroke-linecap="round" stroke-linejoin="round"/>
<path d="M90.9937 329.053C90.7749 325.884 91.2855 322.588 90.3828 319.584C88.7688 314.242 83.17 311.457 81.7657 306.042C80.0879 299.568 85.2125 292.957 84.328 286.274C83.9542 283.461 82.5408 280.987 81.6654 278.32C80.79 275.654 80.5621 272.321 82.2672 270.249C84.0545 268.075 87.2825 268.331 89.4071 270.066C91.5226 271.801 92.7445 274.604 93.7384 277.362C94.7232 280.119 95.5986 283.014 97.2673 285.306C100.313 289.479 105.793 291.305 107.453 296.409C109.149 301.605 105.939 307.092 105.374 312.598C104.945 316.771 106.048 320.917 107.033 324.962C108.018 329.007 108.884 333.289 107.982 337.362C106.787 342.777 102.538 346.228 98.4709 342.758C94.4496 339.334 91.4132 335.006 90.9937 329.053Z" fill="#FFB700"/>
<path d="M101.042 344.073C102.656 324.743 98.9542 303.769 90.328 287.068" stroke="white" stroke-width="0.9754" stroke-miterlimit="10" stroke-linecap="round" stroke-linejoin="round"/>
<path d="M39.2001 313.594C38.4615 316.762 39.9934 320.588 42.4098 322.962C44.8263 325.345 47.963 326.45 50.9448 326.715L58.7503 329.29L59.1443 328.982C59.1442 328.982 59.1441 328.982 59.144 328.982C58.0833 327.624 56.6907 326.998 55.2498 326.679C54.2109 326.449 53.1019 326.371 52.0674 326.299C51.6964 326.274 51.3351 326.248 50.99 326.217L50.989 326.217C48.0938 325.96 45.076 324.889 42.7609 322.606L42.7602 322.606C40.4324 320.318 38.9983 316.662 39.687 313.708M39.2001 313.594L39.6869 313.708C39.6869 313.708 39.6869 313.708 39.687 313.708M39.2001 313.594L39.687 313.707C39.687 313.707 39.687 313.707 39.687 313.708M39.2001 313.594C39.811 310.991 41.7351 309.275 43.5679 307.713C46.112 305.54 48.9843 303.266 52.4038 303.75M39.687 313.708C40.2557 311.286 42.0473 309.666 43.8921 308.094L43.8926 308.093C46.4677 305.894 49.1705 303.798 52.3337 304.245L52.3345 304.246C53.4717 304.405 54.5983 304.886 55.8004 305.399C55.8258 305.41 55.8512 305.421 55.8766 305.432C57.0787 305.945 58.3604 306.485 59.6836 306.622M59.6836 306.622C61.3557 306.795 62.8621 306.318 64.2444 305.61C65.292 305.072 66.3029 304.382 67.2673 303.724C67.5615 303.523 67.8514 303.325 68.1367 303.135L68.1377 303.134C70.6181 301.475 73.5593 300.326 76.1757 301.879M59.6836 306.622L59.7351 306.125L59.6837 306.622C59.6836 306.622 59.6836 306.622 59.6836 306.622ZM52.4038 303.75L52.4038 303.75L52.4038 303.75ZM52.4038 303.75C53.608 303.919 54.7886 304.423 55.9675 304.927C57.2166 305.46 58.4638 305.993 59.7351 306.125C62.4512 306.406 64.7495 304.837 66.9669 303.323C67.2657 303.119 67.5631 302.916 67.8598 302.719C70.3583 301.048 73.5406 299.733 76.4312 301.449M76.4312 301.449L76.1749 301.879C76.1752 301.879 76.1754 301.879 76.1757 301.879M76.4312 301.449L76.1759 301.879C76.1759 301.879 76.1758 301.879 76.1757 301.879M76.4312 301.449C78.8932 302.92 80.2519 306.097 81.1638 309.056L84.47 317.811M76.1757 301.879C77.3057 302.554 78.207 303.636 78.9435 304.94C79.6795 306.243 80.2346 307.739 80.686 309.203L80.6864 309.204C80.7997 309.568 80.9115 309.939 81.0244 310.313C81.8118 312.923 82.6555 315.719 84.47 317.811M84.47 317.811C85.7582 319.303 87.3399 320.222 88.927 321.015C89.3151 321.209 89.701 321.394 90.0832 321.578C91.2876 322.156 92.4563 322.718 93.5443 323.473L93.5449 323.474C96.646 325.62 98.9129 329.293 100.298 333.165C100.316 333.216 100.334 333.268 100.353 333.321C100.866 334.758 101.607 336.839 102.036 338.867C102.258 339.918 102.391 340.934 102.371 341.825C102.35 342.722 102.173 343.441 101.826 343.944L101.824 343.946C101.065 345.054 99.7107 345.2 98.0268 344.783C96.3665 344.372 94.6132 343.462 93.3529 342.792L93.3526 342.791C92.9004 342.552 92.442 342.301 91.9795 342.048C90.9795 341.501 89.9599 340.943 88.9404 340.461C87.4397 339.751 85.885 339.175 84.2748 338.993L84.2747 338.993C81.391 338.666 78.7013 339.658 76.2398 340.622L76.1666 340.65C73.6995 341.617 71.292 342.56 68.7029 342.396C66.1102 342.232 63.2549 340.675 61.9855 337.938L84.47 317.811ZM84.47 317.811L84.8477 317.484L84.4692 317.81C84.4695 317.811 84.4697 317.811 84.47 317.811ZM93.1182 343.233C92.6538 342.987 92.1889 342.732 91.723 342.478C89.2712 341.136 86.7931 339.781 84.2185 339.489C81.4738 339.179 78.8932 340.119 76.4221 341.087L76.3033 341.134C73.8697 342.087 71.3721 343.066 68.6713 342.895C65.9266 342.722 62.8902 341.078 61.5315 338.147L93.1182 343.233ZM93.1182 343.233C95.6258 344.566 100.34 346.995 102.237 344.228L93.1182 343.233Z" fill="#FFB700" stroke="#FFB700"/>
<path d="M101.699 343.854C86.8265 328.824 69.5833 318.397 51.0908 313.247" stroke="white" stroke-width="0.8986" stroke-miterlimit="10" stroke-linecap="round" stroke-linejoin="round"/>
<path d="M527.847 71.5967C527.847 74.4913 525.504 76.8379 522.613 76.8379C519.723 76.8379 517.379 74.4913 517.379 71.5967C517.379 68.7022 519.723 66.3555 522.613 66.3555C525.495 66.3555 527.847 68.7022 527.847 71.5967Z" stroke="#FFB700" stroke-width="2" stroke-miterlimit="10" stroke-linecap="round" stroke-linejoin="round"/>
<path d="M526.397 75.2126L530.09 78.9192" stroke="#FFB700" stroke-width="2" stroke-miterlimit="10" stroke-linecap="round" stroke-linejoin="round"/>
<path d="M323.068 1L328.575 6.51422" stroke="#FFB700" stroke-width="2" stroke-miterlimit="10" stroke-linecap="round" stroke-linejoin="round"/>
<path d="M328.575 1L323.068 6.51422" stroke="#FFB700" stroke-width="2" stroke-miterlimit="10" stroke-linecap="round" stroke-linejoin="round"/>
<path d="M401.995 318.459L407.501 323.974" stroke="#FFB700" stroke-width="2" stroke-miterlimit="10" stroke-linecap="round" stroke-linejoin="round"/>
<path d="M407.501 318.459L401.995 323.974" stroke="#FFB700" stroke-width="2" stroke-miterlimit="10" stroke-linecap="round" stroke-linejoin="round"/>
<path d="M52.5352 245.386V253.184" stroke="#FFB700" stroke-width="2" stroke-miterlimit="10" stroke-linecap="round" stroke-linejoin="round"/>
<path d="M56.4387 249.285H48.6423" stroke="#FFB700" stroke-width="2" stroke-miterlimit="10" stroke-linecap="round" stroke-linejoin="round"/>
<path d="M35.5993 185.515C35.5993 188.126 33.4838 190.254 30.8668 190.254C28.2588 190.254 26.1342 188.135 26.1342 185.515C26.1342 182.903 28.2497 180.776 30.8668 180.776C33.4838 180.785 35.5993 182.903 35.5993 185.515Z" stroke="#FFB700" stroke-width="2" stroke-miterlimit="10" stroke-linecap="round" stroke-linejoin="round"/>
<path d="M232.027 300.134C232.027 302.746 229.911 304.873 227.294 304.873C224.687 304.873 222.562 302.755 222.562 300.134C222.562 297.523 224.677 295.395 227.294 295.395C229.911 295.404 232.027 297.523 232.027 300.134Z" stroke="#FFB700" stroke-width="2" stroke-miterlimit="10" stroke-linecap="round" stroke-linejoin="round"/>
<path d="M544.339 214.786C544.339 217.398 542.224 219.525 539.607 219.525C536.999 219.525 534.874 217.407 534.874 214.786C534.874 212.175 536.99 210.047 539.607 210.047C542.224 210.056 544.339 212.175 544.339 214.786Z" stroke="#FFB700" stroke-width="2" stroke-miterlimit="10" stroke-linecap="round" stroke-linejoin="round"/>
<path d="M6.928 102.464C6.928 103.137 6.38383 103.68 5.714 103.68C5.04417 103.68 4.5 103.137 4.5 102.464C4.5 101.792 5.04417 101.248 5.714 101.248C6.38383 101.248 6.928 101.792 6.928 102.464Z" fill="#FFB700" stroke="#FFB700"/>
<path d="M18.9008 102.464C18.9008 103.137 18.3566 103.68 17.6868 103.68C17.0169 103.68 16.4728 103.137 16.4728 102.464C16.4728 101.792 17.017 101.248 17.6868 101.248C18.3566 101.248 18.9008 101.792 18.9008 102.464Z" fill="#FFB700" stroke="#FFB700"/>
<path d="M30.8644 102.464C30.8644 103.137 30.3202 103.68 29.6504 103.68C28.9806 103.68 28.4364 103.137 28.4364 102.464C28.4364 101.792 28.9806 101.248 29.6504 101.248C30.3202 101.248 30.8644 101.792 30.8644 102.464Z" fill="#FFB700" stroke="#FFB700"/>
<path d="M42.8371 102.464C42.8371 103.137 42.2929 103.68 41.6231 103.68C40.9532 103.68 40.4091 103.137 40.4091 102.464C40.4091 101.792 40.9532 101.248 41.6231 101.248C42.2929 101.248 42.8371 101.792 42.8371 102.464Z" fill="#FFB700" stroke="#FFB700"/>
<path d="M54.8006 102.464C54.8006 103.137 54.2564 103.68 53.5866 103.68C52.9168 103.68 52.3726 103.137 52.3726 102.464C52.3726 101.792 52.9168 101.248 53.5866 101.248C54.2564 101.248 54.8006 101.792 54.8006 102.464Z" fill="#FFB700" stroke="#FFB700"/>
<path d="M66.7732 102.464C66.7732 103.137 66.229 103.68 65.5592 103.68C64.8894 103.68 64.3452 103.137 64.3452 102.464C64.3452 101.792 64.8894 101.248 65.5592 101.248C66.229 101.248 66.7732 101.792 66.7732 102.464Z" fill="#FFB700" stroke="#FFB700"/>
<path d="M6.928 114.444C6.928 115.117 6.38383 115.66 5.714 115.66C5.04417 115.66 4.5 115.117 4.5 114.444C4.5 113.772 5.04417 113.228 5.714 113.228C6.38383 113.228 6.928 113.772 6.928 114.444Z" fill="#FFB700" stroke="#FFB700"/>
<path d="M18.9008 114.444C18.9008 115.117 18.3566 115.66 17.6868 115.66C17.0169 115.66 16.4728 115.117 16.4728 114.444C16.4728 113.772 17.0169 113.228 17.6868 113.228C18.3566 113.228 18.9008 113.772 18.9008 114.444Z" fill="#FFB700" stroke="#FFB700"/>
<path d="M30.8644 114.444C30.8644 115.117 30.3202 115.66 29.6504 115.66C28.9806 115.66 28.4364 115.117 28.4364 114.444C28.4364 113.772 28.9806 113.228 29.6504 113.228C30.3202 113.228 30.8644 113.772 30.8644 114.444Z" fill="#FFB700" stroke="#FFB700"/>
<path d="M42.8371 114.444C42.8371 115.117 42.2929 115.66 41.6231 115.66C40.9532 115.66 40.4091 115.117 40.4091 114.444C40.4091 113.772 40.9532 113.228 41.6231 113.228C42.2929 113.228 42.8371 113.772 42.8371 114.444Z" fill="#FFB700" stroke="#FFB700"/>
<path d="M54.8006 114.444C54.8006 115.117 54.2564 115.66 53.5866 115.66C52.9168 115.66 52.3726 115.117 52.3726 114.444C52.3726 113.772 52.9168 113.228 53.5866 113.228C54.2564 113.228 54.8006 113.772 54.8006 114.444Z" fill="#FFB700" stroke="#FFB700"/>
<path d="M66.7732 114.444C66.7732 115.117 66.229 115.66 65.5592 115.66C64.8894 115.66 64.3452 115.117 64.3452 114.444C64.3452 113.772 64.8894 113.228 65.5592 113.228C66.229 113.228 66.7732 113.772 66.7732 114.444Z" fill="#FFB700" stroke="#FFB700"/>
<path d="M6.928 126.433C6.928 127.106 6.38383 127.649 5.714 127.649C5.04417 127.649 4.5 127.106 4.5 126.433C4.5 125.761 5.04417 125.217 5.714 125.217C6.38383 125.217 6.928 125.761 6.928 126.433Z" fill="#FFB700" stroke="#FFB700"/>
<path d="M18.9008 126.433C18.9008 127.106 18.3566 127.649 17.6868 127.649C17.0169 127.649 16.4728 127.106 16.4728 126.433C16.4728 125.761 17.017 125.217 17.6868 125.217C18.3566 125.217 18.9008 125.761 18.9008 126.433Z" fill="#FFB700" stroke="#FFB700"/>
<path d="M30.8644 126.433C30.8644 127.106 30.3202 127.649 29.6504 127.649C28.9806 127.649 28.4364 127.106 28.4364 126.433C28.4364 125.761 28.9806 125.217 29.6504 125.217C30.3202 125.217 30.8644 125.761 30.8644 126.433Z" fill="#FFB700" stroke="#FFB700"/>
<path d="M42.8371 126.433C42.8371 127.106 42.2929 127.649 41.6231 127.649C40.9532 127.649 40.4091 127.106 40.4091 126.433C40.4091 125.761 40.9532 125.217 41.6231 125.217C42.2929 125.217 42.8371 125.761 42.8371 126.433Z" fill="#FFB700" stroke="#FFB700"/>
<path d="M54.8006 126.433C54.8006 127.106 54.2564 127.649 53.5866 127.649C52.9168 127.649 52.3726 127.106 52.3726 126.433C52.3726 125.761 52.9168 125.217 53.5866 125.217C54.2564 125.217 54.8006 125.761 54.8006 126.433Z" fill="#FFB700" stroke="#FFB700"/>
<path d="M66.7732 126.433C66.7732 127.106 66.229 127.649 65.5592 127.649C64.8894 127.649 64.3452 127.106 64.3452 126.433C64.3452 125.761 64.8894 125.217 65.5592 125.217C66.229 125.217 66.7732 125.761 66.7732 126.433Z" fill="#FFB700" stroke="#FFB700"/>
<path d="M6.928 138.413C6.928 139.086 6.38383 139.629 5.714 139.629C5.04417 139.629 4.5 139.086 4.5 138.413C4.5 137.741 5.04417 137.197 5.714 137.197C6.38383 137.197 6.928 137.741 6.928 138.413Z" fill="#FFB700" stroke="#FFB700"/>
<path d="M18.9008 138.413C18.9008 139.086 18.3566 139.629 17.6868 139.629C17.017 139.629 16.4728 139.086 16.4728 138.413C16.4728 137.741 17.017 137.197 17.6868 137.197C18.3566 137.197 18.9008 137.741 18.9008 138.413Z" fill="#FFB700" stroke="#FFB700"/>
<path d="M30.8644 138.413C30.8644 139.086 30.3202 139.629 29.6504 139.629C28.9806 139.629 28.4364 139.086 28.4364 138.413C28.4364 137.741 28.9806 137.197 29.6504 137.197C30.3202 137.197 30.8644 137.741 30.8644 138.413Z" fill="#FFB700" stroke="#FFB700"/>
<path d="M42.8371 138.413C42.8371 139.086 42.2929 139.629 41.6231 139.629C40.9532 139.629 40.4091 139.086 40.4091 138.413C40.4091 137.741 40.9532 137.197 41.6231 137.197C42.2929 137.197 42.8371 137.741 42.8371 138.413Z" fill="#FFB700" stroke="#FFB700"/>
<path d="M54.8006 138.413C54.8006 139.086 54.2564 139.629 53.5866 139.629C52.9168 139.629 52.3726 139.086 52.3726 138.413C52.3726 137.741 52.9168 137.197 53.5866 137.197C54.2564 137.197 54.8006 137.741 54.8006 138.413Z" fill="#FFB700" stroke="#FFB700"/>
<path d="M66.7732 138.413C66.7732 139.086 66.229 139.629 65.5592 139.629C64.8894 139.629 64.3452 139.086 64.3452 138.413C64.3452 137.741 64.8894 137.197 65.5592 137.197C66.229 137.197 66.7732 137.741 66.7732 138.413Z" fill="#FFB700" stroke="#FFB700"/>
<path d="M191.624 328.189C191.624 328.862 191.08 329.406 190.41 329.406C189.74 329.406 189.196 328.862 189.196 328.189C189.196 327.517 189.74 326.973 190.41 326.973C191.08 326.973 191.624 327.517 191.624 328.189Z" fill="#FFB700" stroke="#FFB700"/>
<path d="M203.596 328.189C203.596 328.862 203.052 329.406 202.382 329.406C201.713 329.406 201.168 328.862 201.168 328.189C201.168 327.517 201.713 326.973 202.382 326.973C203.052 326.973 203.596 327.517 203.596 328.189Z" fill="#FFB700" stroke="#FFB700"/>
<path d="M215.56 328.189C215.56 328.862 215.016 329.406 214.346 329.406C213.676 329.406 213.132 328.862 213.132 328.189C213.132 327.517 213.676 326.973 214.346 326.973C215.016 326.973 215.56 327.517 215.56 328.189Z" fill="#FFB700" stroke="#FFB700"/>
<path d="M227.533 328.189C227.533 328.862 226.988 329.406 226.319 329.406C225.649 329.406 225.105 328.862 225.105 328.189C225.105 327.517 225.649 326.973 226.319 326.973C226.988 326.973 227.533 327.517 227.533 328.189Z" fill="#FFB700" stroke="#FFB700"/>
<path d="M239.496 328.189C239.496 328.862 238.952 329.406 238.282 329.406C237.612 329.406 237.068 328.862 237.068 328.189C237.068 327.517 237.612 326.973 238.282 326.973C238.952 326.973 239.496 327.517 239.496 328.189Z" fill="#FFB700" stroke="#FFB700"/>
<path d="M191.624 340.178C191.624 340.851 191.08 341.395 190.41 341.395C189.74 341.395 189.196 340.851 189.196 340.178C189.196 339.506 189.74 338.962 190.41 338.962C191.08 338.962 191.624 339.506 191.624 340.178Z" fill="#FFB700" stroke="#FFB700"/>
<path d="M203.596 340.178C203.596 340.851 203.052 341.395 202.382 341.395C201.713 341.395 201.168 340.851 201.168 340.178C201.168 339.506 201.713 338.962 202.382 338.962C203.052 338.962 203.596 339.506 203.596 340.178Z" fill="#FFB700" stroke="#FFB700"/>
<path d="M215.56 340.178C215.56 340.851 215.016 341.395 214.346 341.395C213.676 341.395 213.132 340.851 213.132 340.178C213.132 339.506 213.676 338.962 214.346 338.962C215.016 338.962 215.56 339.506 215.56 340.178Z" fill="#FFB700" stroke="#FFB700"/>
<path d="M227.533 340.178C227.533 340.851 226.988 341.395 226.319 341.395C225.649 341.395 225.105 340.851 225.105 340.178C225.105 339.506 225.649 338.962 226.319 338.962C226.988 338.962 227.533 339.506 227.533 340.178Z" fill="#FFB700" stroke="#FFB700"/>
<path d="M239.496 340.178C239.496 340.851 238.952 341.395 238.282 341.395C237.612 341.395 237.068 340.851 237.068 340.178C237.068 339.506 237.612 338.962 238.282 338.962C238.952 338.962 239.496 339.506 239.496 340.178Z" fill="#FFB700" stroke="#FFB700"/>
<path d="M494.93 28.3976C494.93 29.07 494.386 29.614 493.716 29.614C493.046 29.614 492.502 29.07 492.502 28.3976C492.502 27.7252 493.046 27.1813 493.716 27.1813C494.386 27.1813 494.93 27.7252 494.93 28.3976Z" fill="#FFB700" stroke="#FFB700"/>
<path d="M506.894 28.3976C506.894 29.07 506.35 29.614 505.68 29.614C505.01 29.614 504.466 29.07 504.466 28.3976C504.466 27.7252 505.01 27.1813 505.68 27.1813C506.35 27.1813 506.894 27.7252 506.894 28.3976Z" fill="#FFB700" stroke="#FFB700"/>
<path d="M518.866 28.3976C518.866 29.0701 518.322 29.614 517.652 29.614C516.983 29.614 516.438 29.07 516.438 28.3976C516.438 27.7252 516.983 27.1813 517.652 27.1813C518.322 27.1813 518.866 27.7252 518.866 28.3976Z" fill="#FFB700" stroke="#FFB700"/>
<path d="M494.93 40.3868C494.93 41.0592 494.386 41.6031 493.716 41.6031C493.046 41.6031 492.502 41.0592 492.502 40.3868C492.502 39.7143 493.046 39.1704 493.716 39.1704C494.386 39.1704 494.93 39.7143 494.93 40.3868Z" fill="#FFB700" stroke="#FFB700"/>
<path d="M506.894 40.3868C506.894 41.0592 506.35 41.6031 505.68 41.6031C505.01 41.6031 504.466 41.0592 504.466 40.3868C504.466 39.7143 505.01 39.1704 505.68 39.1704C506.35 39.1704 506.894 39.7143 506.894 40.3868Z" fill="#FFB700" stroke="#FFB700"/>
<path d="M518.866 40.3868C518.866 41.0592 518.322 41.6031 517.652 41.6031C516.983 41.6031 516.438 41.0592 516.438 40.3868C516.438 39.7143 516.983 39.1704 517.652 39.1704C518.322 39.1704 518.866 39.7143 518.866 40.3868Z" fill="#FFB700" stroke="#FFB700"/>
<path d="M181.582 5.71634C181.582 6.38877 181.038 6.93268 180.368 6.93268C179.698 6.93268 179.154 6.38875 179.154 5.71634C179.154 5.04394 179.698 4.5 180.368 4.5C181.038 4.5 181.582 5.04392 181.582 5.71634Z" fill="#FFB700" stroke="#FFB700"/>
<path d="M193.546 5.71634C193.546 6.38875 193.002 6.93268 192.332 6.93268C191.662 6.93268 191.118 6.38875 191.118 5.71634C191.118 5.04393 191.662 4.5 192.332 4.5C193.002 4.5 193.546 5.04393 193.546 5.71634Z" fill="#FFB700" stroke="#FFB700"/>
<path d="M205.518 5.71634C205.518 6.38878 204.974 6.93268 204.304 6.93268C203.635 6.93268 203.09 6.38875 203.09 5.71634C203.09 5.04393 203.635 4.5 204.304 4.5C204.974 4.5 205.518 5.04391 205.518 5.71634Z" fill="#FFB700" stroke="#FFB700"/>
<path d="M181.582 17.7054C181.582 18.3778 181.038 18.9217 180.368 18.9217C179.698 18.9217 179.154 18.3778 179.154 17.7054C179.154 17.033 179.698 16.489 180.368 16.489C181.038 16.489 181.582 17.0329 181.582 17.7054Z" fill="#FFB700" stroke="#FFB700"/>
<path d="M193.546 17.7055C193.546 18.3779 193.001 18.9218 192.332 18.9218C191.662 18.9218 191.118 18.3779 191.118 17.7055C191.118 17.0331 191.662 16.4891 192.332 16.4891C193.002 16.4891 193.546 17.0331 193.546 17.7055Z" fill="#FFB700" stroke="#FFB700"/>
<path d="M205.518 17.7055C205.518 18.3779 204.974 18.9218 204.304 18.9218C203.635 18.9218 203.09 18.3779 203.09 17.7055C203.09 17.0331 203.635 16.4891 204.304 16.4891C204.974 16.4891 205.518 17.033 205.518 17.7055Z" fill="#FFB700" stroke="#FFB700"/>
<path d="M602.5 190.4C602.5 191.072 601.956 191.616 601.286 191.616C600.616 191.616 600.072 191.072 600.072 190.4C600.072 189.728 600.616 189.184 601.286 189.184C601.956 189.184 602.5 189.728 602.5 190.4Z" fill="#FFB700" stroke="#FFB700"/>
<path d="M602.5 202.389C602.5 203.061 601.956 203.605 601.286 203.605C600.616 203.605 600.072 203.061 600.072 202.389C600.072 201.717 600.616 201.173 601.286 201.173C601.956 201.173 602.5 201.717 602.5 202.389Z" fill="#FFB700" stroke="#FFB700"/>
<path d="M602.5 214.369C602.5 215.041 601.956 215.585 601.286 215.585C600.616 215.585 600.072 215.041 600.072 214.369C600.072 213.697 600.616 213.153 601.286 213.153C601.956 213.153 602.5 213.697 602.5 214.369Z" fill="#FFB700" stroke="#FFB700"/>
<path d="M602.5 226.358C602.5 227.03 601.956 227.574 601.286 227.574C600.616 227.574 600.072 227.03 600.072 226.358C600.072 225.686 600.616 225.142 601.286 225.142C601.956 225.142 602.5 225.686 602.5 226.358Z" fill="#FFB700" stroke="#FFB700"/>
<path d="M602.5 238.338C602.5 239.01 601.956 239.554 601.286 239.554C600.616 239.554 600.072 239.01 600.072 238.338C600.072 237.666 600.616 237.122 601.286 237.122C601.956 237.122 602.5 237.666 602.5 238.338Z" fill="#FFB700" stroke="#FFB700"/>
<path d="M602.5 250.327C602.5 250.999 601.956 251.543 601.286 251.543C600.616 251.543 600.072 250.999 600.072 250.327C600.072 249.655 600.616 249.111 601.286 249.111C601.956 249.111 602.5 249.655 602.5 250.327Z" fill="#FFB700" stroke="#FFB700"/>
<path d="M602.5 262.307C602.5 262.979 601.956 263.523 601.286 263.523C600.616 263.523 600.072 262.979 600.072 262.307C600.072 261.635 600.616 261.091 601.286 261.091C601.956 261.091 602.5 261.635 602.5 262.307Z" fill="#FFB700" stroke="#FFB700"/>
<path d="M590.527 190.4C590.527 191.072 589.983 191.616 589.313 191.616C588.643 191.616 588.099 191.072 588.099 190.4C588.099 189.728 588.643 189.184 589.313 189.184C589.983 189.184 590.527 189.728 590.527 190.4Z" fill="#FFB700" stroke="#FFB700"/>
<path d="M590.527 202.389C590.527 203.061 589.983 203.605 589.313 203.605C588.643 203.605 588.099 203.061 588.099 202.389C588.099 201.717 588.643 201.173 589.313 201.173C589.983 201.173 590.527 201.717 590.527 202.389Z" fill="#FFB700" stroke="#FFB700"/>
<path d="M590.527 214.369C590.527 215.041 589.983 215.585 589.313 215.585C588.643 215.585 588.099 215.041 588.099 214.369C588.099 213.697 588.643 213.153 589.313 213.153C589.983 213.153 590.527 213.697 590.527 214.369Z" fill="#FFB700" stroke="#FFB700"/>
<path d="M590.527 226.358C590.527 227.03 589.983 227.574 589.313 227.574C588.643 227.574 588.099 227.03 588.099 226.358C588.099 225.686 588.643 225.142 589.313 225.142C589.983 225.142 590.527 225.686 590.527 226.358Z" fill="#FFB700" stroke="#FFB700"/>
<path d="M590.527 238.338C590.527 239.01 589.983 239.554 589.313 239.554C588.643 239.554 588.099 239.01 588.099 238.338C588.099 237.666 588.643 237.122 589.313 237.122C589.983 237.122 590.527 237.666 590.527 238.338Z" fill="#FFB700" stroke="#FFB700"/>
<path d="M590.527 250.327C590.527 250.999 589.983 251.543 589.313 251.543C588.643 251.543 588.099 250.999 588.099 250.327C588.099 249.655 588.643 249.111 589.313 249.111C589.983 249.111 590.527 249.655 590.527 250.327Z" fill="#FFB700" stroke="#FFB700"/>
<path d="M590.527 262.307C590.527 262.979 589.983 263.523 589.313 263.523C588.643 263.523 588.099 262.979 588.099 262.307C588.099 261.635 588.643 261.091 589.313 261.091C589.983 261.091 590.527 261.635 590.527 262.307Z" fill="#FFB700" stroke="#FFB700"/>
<path d="M578.564 190.4C578.564 191.072 578.02 191.616 577.35 191.616C576.68 191.616 576.136 191.072 576.136 190.4C576.136 189.728 576.68 189.184 577.35 189.184C578.02 189.184 578.564 189.728 578.564 190.4Z" fill="#FFB700" stroke="#FFB700"/>
<path d="M578.564 202.389C578.564 203.061 578.02 203.605 577.35 203.605C576.68 203.605 576.136 203.061 576.136 202.389C576.136 201.717 576.68 201.173 577.35 201.173C578.02 201.173 578.564 201.717 578.564 202.389Z" fill="#FFB700" stroke="#FFB700"/>
<path d="M578.564 214.369C578.564 215.041 578.02 215.585 577.35 215.585C576.68 215.585 576.136 215.041 576.136 214.369C576.136 213.697 576.68 213.153 577.35 213.153C578.02 213.153 578.564 213.697 578.564 214.369Z" fill="#FFB700" stroke="#FFB700"/>
<path d="M578.564 226.358C578.564 227.03 578.02 227.574 577.35 227.574C576.68 227.574 576.136 227.03 576.136 226.358C576.136 225.686 576.68 225.142 577.35 225.142C578.02 225.142 578.564 225.686 578.564 226.358Z" fill="#FFB700" stroke="#FFB700"/>
<path d="M578.564 238.338C578.564 239.01 578.02 239.554 577.35 239.554C576.68 239.554 576.136 239.01 576.136 238.338C576.136 237.666 576.68 237.122 577.35 237.122C578.02 237.122 578.564 237.666 578.564 238.338Z" fill="#FFB700" stroke="#FFB700"/>
<path d="M578.564 250.327C578.564 250.999 578.02 251.543 577.35 251.543C576.68 251.543 576.136 250.999 576.136 250.327C576.136 249.655 576.68 249.111 577.35 249.111C578.02 249.111 578.564 249.655 578.564 250.327Z" fill="#FFB700" stroke="#FFB700"/>
<path d="M578.564 262.307C578.564 262.979 578.02 263.523 577.35 263.523C576.68 263.523 576.136 262.979 576.136 262.307C576.136 261.635 576.68 261.091 577.35 261.091C578.02 261.091 578.564 261.635 578.564 262.307Z" fill="#FFB700" stroke="#FFB700"/>
<path d="M566.591 190.4C566.591 191.072 566.047 191.616 565.377 191.616C564.707 191.616 564.163 191.072 564.163 190.4C564.163 189.728 564.707 189.184 565.377 189.184C566.047 189.184 566.591 189.728 566.591 190.4Z" fill="#FFB700" stroke="#FFB700"/>
<path d="M566.591 202.389C566.591 203.061 566.047 203.605 565.377 203.605C564.707 203.605 564.163 203.061 564.163 202.389C564.163 201.717 564.707 201.173 565.377 201.173C566.047 201.173 566.591 201.717 566.591 202.389Z" fill="#FFB700" stroke="#FFB700"/>
<path d="M566.591 214.369C566.591 215.041 566.047 215.585 565.377 215.585C564.707 215.585 564.163 215.041 564.163 214.369C564.163 213.697 564.707 213.153 565.377 213.153C566.047 213.153 566.591 213.697 566.591 214.369Z" fill="#FFB700" stroke="#FFB700"/>
<path d="M566.591 226.358C566.591 227.03 566.047 227.574 565.377 227.574C564.707 227.574 564.163 227.03 564.163 226.358C564.163 225.686 564.707 225.142 565.377 225.142C566.047 225.142 566.591 225.686 566.591 226.358Z" fill="#FFB700" stroke="#FFB700"/>
<path d="M566.591 238.338C566.591 239.01 566.047 239.554 565.377 239.554C564.707 239.554 564.163 239.01 564.163 238.338C564.163 237.666 564.707 237.122 565.377 237.122C566.047 237.122 566.591 237.666 566.591 238.338Z" fill="#FFB700" stroke="#FFB700"/>
<path d="M566.591 250.327C566.591 250.999 566.047 251.543 565.377 251.543C564.707 251.543 564.163 250.999 564.163 250.327C564.163 249.655 564.707 249.111 565.377 249.111C566.047 249.111 566.591 249.655 566.591 250.327Z" fill="#FFB700" stroke="#FFB700"/>
<path d="M566.591 262.307C566.591 262.979 566.047 263.523 565.377 263.523C564.707 263.523 564.163 262.979 564.163 262.307C564.163 261.635 564.707 261.091 565.377 261.091C566.047 261.091 566.591 261.635 566.591 262.307Z" fill="#FFB700" stroke="#FFB700"/>
<path d="M463.05 261.842H152.287C146.676 261.842 142.118 257.248 142.118 251.574V60.0307C142.118 54.3567 146.676 49.7621 152.287 49.7621H463.059C468.669 49.7621 473.228 54.3567 473.228 60.0307V251.573C473.219 257.248 468.66 261.842 463.05 261.842Z" fill="#FFB700" stroke="#FFB700"/>
<path d="M462.6 253.268H152.733C147.927 253.268 144.025 249.36 144.025 244.548V60.0729C144.025 55.2609 147.927 51.3528 152.733 51.3528H462.6C467.406 51.3528 471.309 55.2609 471.309 60.0729V244.548C471.309 249.369 467.406 253.268 462.6 253.268Z" fill="white"/>
<path d="M360.692 68.6108V198.765C360.692 202.691 357.518 205.869 353.597 205.869H157.894C156.135 205.869 154.521 205.23 153.28 204.161C151.767 202.856 150.8 200.929 150.8 198.765V68.6108C150.8 64.6845 153.983 61.5068 157.894 61.5068H353.597C355.357 61.5068 356.98 62.146 358.211 63.2143C359.734 64.5201 360.692 66.4467 360.692 68.6108Z" fill="#E6E6F0"/>
<path d="M457.5 117.142H376.491C372.57 117.142 369.396 113.965 369.396 110.038V68.6108C369.396 64.6845 372.57 61.5068 376.491 61.5068H457.5C461.421 61.5068 464.594 64.6845 464.594 68.6108V110.038C464.594 113.965 461.412 117.142 457.5 117.142Z" fill="#E6E6F0"/>
<path d="M457.5 182.636H376.491C372.57 182.636 369.396 179.458 369.396 175.532V134.104C369.396 130.178 372.57 127 376.491 127H457.5C461.421 127 464.594 130.178 464.594 134.104V175.532C464.594 179.458 461.412 182.636 457.5 182.636Z" fill="#E6E6F0"/>
<path d="M457.5 244.691H376.491C372.57 244.691 369.396 241.513 369.396 237.587V200.104C369.396 196.178 372.57 193 376.491 193H457.5C461.421 193 464.594 196.178 464.594 200.104V237.587C464.594 241.513 461.412 244.691 457.5 244.691Z" fill="#E6E6F0"/>
<path d="M257.825 219.839H153.381C151.958 219.839 150.809 218.689 150.809 217.265C150.809 215.84 151.958 214.69 153.381 214.69H257.825C259.247 214.69 260.396 215.84 260.396 217.265C260.396 218.68 259.247 219.839 257.825 219.839Z" fill="#E6E6F0"/>
<path d="M263.853 244H153.485C151.981 244 150.767 242.884 150.767 241.501V231.499C150.767 230.116 151.981 229 153.485 229H263.853C265.357 229 266.571 230.116 266.571 231.499V241.501C266.571 242.884 265.357 244 263.853 244Z" fill="#E6E6F0"/>
<path d="M335.15 219.839H358.12C359.543 219.839 360.692 218.689 360.692 217.265C360.692 215.84 359.543 214.69 358.12 214.69H335.15C333.728 214.69 332.579 215.84 332.579 217.265C332.579 218.68 333.728 219.839 335.15 219.839Z" fill="#E6E6F0"/>
<path d="M296.187 219.839H319.156C320.579 219.839 321.728 218.689 321.728 217.265C321.728 215.84 320.579 214.69 319.156 214.69H296.187C294.764 214.69 293.615 215.84 293.615 217.265C293.606 218.68 294.764 219.839 296.187 219.839Z" fill="#E6E6F0"/>
<path d="M312.564 244.11H358.12C359.543 244.11 360.692 242.959 360.692 241.535V231.226C360.692 229.801 359.543 228.651 358.12 228.651H312.564C311.141 228.651 309.992 229.801 309.992 231.226V241.535C309.992 242.959 311.141 244.11 312.564 244.11Z" fill="#E6E6F0"/>
<g opacity="0.24">
<path d="M416.702 104.14C424.634 104.14 431.064 97.701 431.064 89.7584C431.064 81.8157 424.634 75.377 416.702 75.377C408.77 75.377 402.34 81.8157 402.34 89.7584C402.34 97.701 408.77 104.14 416.702 104.14Z" fill="#E6E6F0" stroke="#FF4F00" stroke-width="2" stroke-miterlimit="10"/>
<path d="M422.587 88.3403L414.389 83.6012C413.487 83.0808 412.365 83.7291 412.365 84.77V94.2481C412.365 95.289 413.487 95.9373 414.389 95.4168L422.587 90.6778C423.49 90.1573 423.49 88.8607 422.587 88.3403Z" fill="#E6E6F0" stroke="#FF4F00" stroke-width="2" stroke-miterlimit="10"/>
</g>
<g opacity="0.24">
<path d="M416.702 168.763C424.634 168.763 431.064 162.324 431.064 154.381C431.064 146.439 424.634 140 416.702 140C408.77 140 402.34 146.439 402.34 154.381C402.34 162.324 408.77 168.763 416.702 168.763Z" fill="#E6E6F0" stroke="#FF4F00" stroke-width="2" stroke-miterlimit="10"/>
<path d="M422.587 152.963L414.389 148.224C413.487 147.704 412.365 148.352 412.365 149.393V158.871C412.365 159.912 413.487 160.56 414.389 160.04L422.587 155.301C423.49 154.78 423.49 153.484 422.587 152.963Z" fill="#E6E6F0" stroke="#FF4F00" stroke-width="2" stroke-miterlimit="10"/>
</g>
<g opacity="0.24">
<path d="M416.702 232.763C424.634 232.763 431.064 226.324 431.064 218.381C431.064 210.439 424.634 204 416.702 204C408.77 204 402.34 210.439 402.34 218.381C402.34 226.324 408.77 232.763 416.702 232.763Z" fill="#E6E6F0" stroke="#FF4F00" stroke-width="2" stroke-miterlimit="10"/>
<path d="M422.587 216.963L414.389 212.224C413.487 211.704 412.365 212.352 412.365 213.393V222.871C412.365 223.912 413.487 224.56 414.389 224.04L422.587 219.301C423.49 218.78 423.49 217.484 422.587 216.963Z" fill="#E6E6F0" stroke="#FF4F00" stroke-width="2" stroke-miterlimit="10"/>
</g>
<path d="M358.211 63.2143L153.28 204.161C151.767 202.856 150.8 200.929 150.8 198.765V68.6108C150.8 64.6845 153.983 61.5068 157.894 61.5068H353.597C355.357 61.5068 356.98 62.146 358.211 63.2143Z" fill="#F2F2FA"/>
<mask id="mask0" mask-type="alpha" maskUnits="userSpaceOnUse" x="151" y="32" width="210" height="175">
<path d="M360.947 40.8188V197.587C360.947 202.316 357.78 206.144 353.866 206.144H158.512C156.755 206.144 155.144 205.374 153.906 204.087C152.395 202.514 151.43 200.194 151.43 197.587V40.8188C151.43 36.0896 154.607 32.2622 158.512 32.2622H353.866C355.623 32.2622 357.243 33.0321 358.472 34.3189C359.992 35.8916 360.947 38.2122 360.947 40.8188Z" fill="#A3D1DE"/>
</mask>
<g mask="url(#mask0)">
<path d="M344.442 142.967C344.442 142.967 356.141 133.718 356.451 131.07C357.035 126.084 358.822 122.176 369.527 118.871C369.527 118.871 370.357 120.459 368.871 122.185C367.248 124.057 365.962 124.714 365.962 124.714C365.962 124.714 368.798 125.801 373.02 122.496C377.242 119.199 379.02 116.332 380.798 117.035C380.798 117.035 382.895 115.136 383.889 115.437C383.889 115.437 384.619 115.656 384.482 116.442C386.132 116.186 385.795 120.952 382.859 124.824C378.637 130.394 373.366 135.188 369.053 136.767C365.816 137.955 352.439 151.587 352.439 151.587L344.442 142.967Z" fill="#FFCAD0"/>
<path d="M308.314 190.157C303.208 191.883 274.877 148.254 274.877 148.254C263.925 135.635 273.755 94.0706 283.667 108.644C283.667 108.644 309.445 155.34 312.226 159.102C315.682 163.777 327.181 183.774 308.314 190.157Z" fill="#FFB700"/>
<path d="M276.39 233.465H201.691C201.691 233.465 195.955 230.936 200.943 219.906C202.812 215.788 202.001 205.177 201.691 190.613C201.062 161.814 192.527 114.013 203.059 108.534C209.369 105.238 222.773 100.901 232.502 97.933C233.086 97.7686 233.651 97.5951 234.208 97.4307C239.888 95.7324 243.946 94.6093 243.946 94.6093C243.946 94.6093 248.651 95.2941 258.208 98.1247C258.727 98.2799 259.265 98.4443 259.822 98.6086C262.311 99.3665 265.083 100.252 268.165 101.302C284.87 106.991 282.992 104.964 285.208 125.856C286.977 142.538 276.39 233.465 276.39 233.465Z" fill="#FFB700"/>
<path d="M259.822 98.5995C259.603 102.142 258.016 105.274 255.6 107.566C253.147 109.913 249.819 111.337 246.189 111.337C238.703 111.337 232.648 105.338 232.493 97.933C233.077 97.7686 233.642 97.5951 234.199 97.4307C239.879 95.7324 243.937 94.6093 243.937 94.6093C243.937 94.6093 248.642 95.2941 258.199 98.1247C258.718 98.2708 259.265 98.4352 259.822 98.5995Z" fill="#F2F2FA"/>
<path d="M258.18 68.6953L257.004 91.4499L256.667 97.9421C256.53 100.7 255.317 103.156 253.439 104.927C251.579 106.699 249.062 107.776 246.308 107.776C240.481 107.776 235.785 102.964 235.94 97.1386L236.232 85.5513L236.724 66.303L258.18 68.6953Z" fill="#FBD5D9"/>
<path d="M258.18 73.2426L257.004 94.6732C246.937 95.075 239.597 90.9843 236.232 85.5239L236.724 70.8685L258.18 73.2426Z" fill="#FFA4AD"/>
<path d="M230.04 46.4156C230.04 46.4156 220.393 45.2103 221.496 57.318C222.354 66.7048 235.092 79.2326 235.092 79.2326C235.092 79.2326 243.135 50.9446 230.04 46.4156Z" fill="#8F4A3F"/>
<path d="M269.442 55.1357C268.785 56.6332 267.773 57.939 266.943 59.3451C266.123 60.7513 265.466 62.3584 265.649 63.9837C265.484 61.3449 263.743 59.126 262.238 56.9619C260.734 54.7888 259.366 52.159 260.086 49.6206C260.77 47.1826 265.174 43.3384 267.855 44.9181C270.837 46.6712 270.609 52.4786 269.442 55.1357Z" fill="#0E1235"/>
<path d="M266.168 55.6196C266.168 55.6196 266.916 63.0341 265.877 71.2429C264.673 80.7301 265.101 91.87 251.141 92.6187C236.241 93.4131 231.308 76.7124 231.308 76.7124C231.308 76.7124 223.393 75.2332 222.855 69.8824C222.317 64.5224 227.843 64.2211 229.648 65.7277C229.648 65.7277 231.691 45.7581 250.12 45.7581C266.378 45.7398 266.168 55.6196 266.168 55.6196Z" fill="#FBD5D9"/>
<path d="M248.66 70.8591C248.66 71.6716 248.004 72.3381 247.183 72.3381C246.363 72.3381 245.706 71.6808 245.706 70.8591C245.706 70.0466 246.363 69.3801 247.183 69.3801C248.004 69.3801 248.66 70.0466 248.66 70.8591Z" fill="#9A5449"/>
<path d="M262.01 70.8591C262.01 71.6716 261.353 72.3381 260.533 72.3381C259.712 72.3381 259.056 71.6808 259.056 70.8591C259.056 70.0466 259.712 69.3801 260.533 69.3801C261.353 69.3801 262.01 70.0466 262.01 70.8591Z" fill="#9A5449"/>
<path d="M241.813 65.7185C241.813 65.7185 244.001 62.1117 248.661 63.4084" stroke="#561E15" stroke-width="1.0274" stroke-miterlimit="10" stroke-linecap="round" stroke-linejoin="round"/>
<path d="M256.694 63.3536C256.694 63.3536 260.059 60.2764 263.369 63.6458" stroke="#561E15" stroke-width="1.0274" stroke-miterlimit="10" stroke-linecap="round" stroke-linejoin="round"/>
<path d="M253.74 67.0151C253.74 67.0151 255.335 71.0967 256.694 73.6352C258.053 76.1736 254.041 77.3058 254.041 77.3058" stroke="#D66D78" stroke-width="0.7706" stroke-miterlimit="10" stroke-linecap="round" stroke-linejoin="round"/>
<path d="M248.396 81.8715C248.396 81.8715 251.688 85.0673 255.919 83.1133" stroke="#D66D78" stroke-width="0.7706" stroke-miterlimit="10" stroke-linecap="round" stroke-linejoin="round"/>
<path d="M229.383 71.5983C229.383 71.5983 229.338 67.0062 225.91 68.2569" stroke="#D66D78" stroke-width="0.7706" stroke-miterlimit="10" stroke-linecap="round" stroke-linejoin="round"/>
<path d="M233.907 50.2506C233.907 50.2506 242.287 58.7973 237.7 62.0662C232.594 65.7095 231.8 70.8594 231.8 70.8594C231.8 70.8594 231.91 69.0424 229.639 65.7186C227.369 62.3858 222.417 50.5702 233.907 50.2506Z" fill="#8F4A3F"/>
<path d="M308.314 190.157C314.406 194.129 360.701 144.611 360.701 144.611L352.485 133.845C352.485 133.845 317.287 155.961 312.226 159.102C304.931 163.622 287.825 176.807 308.314 190.157Z" fill="#FFB700"/>
<path d="M283.694 161.366C283.694 161.366 285.764 138.731 285.409 131.544C285.409 131.544 288.354 150.546 288.427 168.105L283.694 161.366Z" fill="#D99C00"/>
<path d="M205.466 153.651C205.466 153.651 216.308 107.164 204.709 107.712C204.709 107.712 200.925 108.169 193.521 119.674C188.341 127.718 182.67 141.662 172.329 164.343C167.442 175.063 161.332 189.572 172.676 190.348C178.812 190.768 185.25 187.408 189.043 180.35C195.992 167.42 205.466 153.651 205.466 153.651Z" fill="#FFB700"/>
<path d="M215.168 211.514L274.174 197.589C274.165 197.589 255.609 211.514 215.168 211.514Z" fill="#D99C00"/>
<path d="M199.32 162.992C199.32 162.992 208.84 146.108 213.901 137.872L202.019 202.456C202.019 202.456 200.861 176.077 199.32 162.992Z" fill="#D99C00"/>
<path d="M237.262 184.989L201.974 201.488L203.788 184.523L237.262 184.989Z" fill="#D99C00"/>
<path d="M243.043 182.166L243.043 182.166L248.87 150.307L248.87 150.306C249.173 148.628 250.634 147.412 252.345 147.412H264.728C266.932 147.412 268.602 149.412 268.202 151.588L268.202 151.588L262.376 183.446C262.376 183.446 262.376 183.446 262.376 183.446C262.064 185.127 260.601 186.342 258.901 186.342H246.518C244.313 186.342 242.643 184.343 243.043 182.166Z" fill="#FFB700" stroke="#FFB700"/>
<path d="M260.433 188.193H248.049C245.533 188.193 243.627 185.911 244.083 183.427L249.91 151.569C250.256 149.651 251.925 148.263 253.876 148.263H266.259C268.776 148.263 270.682 150.546 270.226 153.03L264.399 184.888C264.053 186.805 262.384 188.193 260.433 188.193Z" fill="white"/>
<path d="M251.231 159.552L251.232 159.548L252.654 151.768L252.654 151.768L252.655 151.764C252.676 151.643 252.784 151.548 252.919 151.548H255.135C255.307 151.548 255.432 151.703 255.401 151.867L255.4 151.872L253.977 159.651L253.977 159.651L253.977 159.655C253.956 159.777 253.848 159.871 253.712 159.871H251.497C251.325 159.871 251.199 159.717 251.231 159.552Z" fill="#FFB700" stroke="#FFB700"/>
<path d="M225.627 170.963C225.627 170.963 231.664 170.762 236.287 169.347C238.275 168.735 242.214 168.023 243.518 166.133C244.831 164.225 244.712 160.106 246.025 159.933C247.038 159.796 249.062 163.019 248.542 165.192C248.031 167.32 247.785 168.498 247.01 169.448C246.755 169.767 255.263 170.37 260.652 169.183C264.345 168.37 263.25 172.032 260.743 173.182C260.743 173.182 261.636 175.419 259.019 176.177C259.019 176.177 259.047 179.163 256.548 179.3C256.266 179.994 255.782 181.473 253.621 182.003C250.475 182.779 245.724 183.071 240.937 182.642C238.503 182.423 227.268 184.395 227.268 184.395L225.627 170.963Z" fill="#FFCAD0"/>
<path d="M172.311 190.522C180.928 192.029 232.293 186.221 232.293 186.221L231.016 168.224C231.016 168.224 189.162 170.178 183.581 169.676C165.125 168.041 161.587 188.65 172.311 190.522Z" fill="#FFB700"/>
<path d="M235.94 36.6812C236.825 35.7955 237.81 34.855 239.05 34.718C240.29 34.5811 241.703 35.7407 241.293 36.9277C245.515 35.0924 249.928 33.7227 254.442 32.8461C255.573 32.627 256.794 32.4444 257.843 32.9466C258.883 33.4488 259.53 34.9006 258.819 35.8046C261.007 36.6264 263.433 36.0877 265.758 35.8137C268.083 35.5398 270.737 35.6585 272.314 37.3843C273.782 38.9822 273.81 41.3928 273.764 43.566C273.691 46.5427 273.618 49.5377 272.943 52.4414C271.94 56.733 269.606 60.6959 266.332 63.6452C267.308 60.3033 265.566 56.5961 262.822 54.4503C260.086 52.2953 256.557 51.4461 253.101 51.0535C248.962 50.5787 244.749 50.6883 240.627 51.364C237.518 51.8753 233.077 54.0941 229.986 52.688C223.138 49.5834 233.296 39.3292 235.94 36.6812Z" fill="#8F4A3F"/>
</g>
<path d="M341.798 75.1578H298.922C295.64 75.1578 292.977 72.4915 292.977 69.2043V51.1978C292.977 47.9107 295.64 45.2444 298.922 45.2444H341.798C345.081 45.2444 347.743 47.9107 347.743 51.1978V69.2043C347.743 72.4915 345.081 75.1578 341.798 75.1578Z" fill="#FFB700"/>
<path d="M302.15 73.222V81.4216L310.922 72.6376L302.15 73.222Z" fill="#FFB700"/>
<path d="M305.57 63.6252C307.458 63.6252 308.989 62.0921 308.989 60.201C308.989 58.3099 307.458 56.7769 305.57 56.7769C303.681 56.7769 302.15 58.3099 302.15 60.201C302.15 62.0921 303.681 63.6252 305.57 63.6252Z" fill="#E6E6F0"/>
<path d="M320.36 63.6252C322.248 63.6252 323.779 62.0921 323.779 60.201C323.779 58.3099 322.248 56.7769 320.36 56.7769C318.471 56.7769 316.94 58.3099 316.94 60.201C316.94 62.0921 318.471 63.6252 320.36 63.6252Z" fill="#E6E6F0"/>
<path d="M335.15 63.6252C337.039 63.6252 338.57 62.0921 338.57 60.201C338.57 58.3099 337.039 56.7769 335.15 56.7769C333.262 56.7769 331.731 58.3099 331.731 60.201C331.731 62.0921 333.262 63.6252 335.15 63.6252Z" fill="#E6E6F0"/>
<path d="M459.737 318.882L457.795 342.541H467.871L473.105 318.882H459.737Z" fill="#FEC9CF"/>
<path d="M468.965 337.591C468.965 337.591 473.342 344.668 470.06 345.928C466.777 347.188 445.166 347.298 439.832 346.503C434.497 345.7 451.731 338.386 455.671 337.235C459.619 336.085 460.886 342.084 468.965 337.591Z" fill="#FF4F00"/>
<path d="M512.716 318.882L514.649 342.541H504.573L499.348 318.882H512.716Z" fill="#FEC9CF"/>
<path d="M503.479 337.591C503.479 337.591 499.102 344.668 502.385 345.928C505.668 347.188 527.279 347.298 532.613 346.503C537.947 345.7 520.713 338.386 516.774 337.235C512.835 336.085 511.558 342.084 503.479 337.591Z" fill="#FF4F00"/>
<path d="M457.713 189.522L453.145 331.373H474.418L479.005 236.894L497.233 334.085L520.403 330.223C520.403 330.223 499.485 224.202 495.929 189.531H457.713V189.522Z" fill="#D8D8E3"/>
<path d="M478.027 243.401L477.304 228.101L478.502 236.901L478.027 243.401Z" fill="#194248" stroke="#C9C9D4"/>
<path d="M489.09 189.522L513.71 331.017" stroke="#C9C9D4" stroke-miterlimit="10" stroke-linecap="round" stroke-linejoin="round"/>
<path d="M483.966 84.9623C488.507 84.9714 493.33 87.3546 494.862 91.6371C496.048 94.9334 495.154 98.8232 496.814 101.91C498.035 104.192 500.479 105.662 501.583 108C503.862 112.858 499.421 118.629 500.835 123.797C502.139 128.581 508.057 131.321 508.549 136.261C508.868 139.411 506.653 142.433 503.798 143.803C500.953 145.182 497.616 145.173 494.497 144.652C486.847 143.365 479.643 139.164 471.893 139.566C468.701 139.73 465.364 140.662 462.409 139.429C460.303 138.552 458.78 136.699 457.44 134.854C455.899 132.736 454.421 130.325 454.567 127.714C454.777 123.879 458.251 121.194 460.33 117.971C462.455 114.675 463.348 110.557 462.756 106.676C459.938 88.2312 470.297 88.7973 471.619 88.7699C472.832 88.7425 476.862 86.268 478.458 85.8023C480.263 85.2819 482.105 84.9623 483.966 84.9623Z" fill="#D38D00"/>
<path d="M435.3 162.348C430.914 158.85 413.078 147.035 412.904 145.382C412.576 142.278 411.491 139.821 404.844 137.703C404.844 137.703 404.315 138.689 405.236 139.776C406.23 140.954 407.032 141.364 407.032 141.364C407.032 141.364 405.263 142.022 402.655 139.94C400.047 137.858 398.962 136.059 397.85 136.488C397.85 136.488 396.555 135.292 395.935 135.475C395.935 135.475 395.479 135.603 395.561 136.096C394.53 135.922 394.713 138.89 396.509 141.328C399.099 144.825 403.667 147.491 406.348 148.505C408.354 149.263 421.512 168.749 430.33 170.858C432.865 171.442 437.342 163.973 435.3 162.348Z" fill="#FCDDC6"/>
<path d="M449.096 145.063C449.096 145.063 429.382 158.833 427.476 162.257C425.57 165.681 426.993 174.821 435.774 168.95C444.555 163.078 458.415 152.422 458.415 152.422L449.096 145.063Z" fill="#FCDDC6"/>
<path d="M459.227 132.526C459.227 132.526 453.81 133.896 450.199 138.196C447.172 141.803 442.294 147.611 442.294 147.611L457.248 159.243C457.257 159.234 460.905 138.087 459.227 132.526Z" fill="#FF6400"/>
<path d="M495.929 189.522H457.704C457.704 189.522 457.859 182.957 455.734 172.757C453.601 162.567 454.667 157.235 456.792 151.911C458.926 146.588 455.123 134.279 459.227 132.526C460.895 131.814 463.795 130.663 466.64 129.558C467.36 129.284 468.072 129.001 468.756 128.737C472.057 127.458 474.838 126.399 474.838 126.399H481.722C481.722 126.399 486.464 127.97 491.333 129.915C491.972 130.17 492.619 130.435 493.257 130.7C493.257 130.709 493.257 130.709 493.257 130.709C495.71 131.741 498.054 132.827 499.649 133.823C504.82 137.018 495.929 189.522 495.929 189.522Z" fill="#FF4F00"/>
<path d="M472.521 109.461L473.251 123.632L473.461 127.677C473.552 129.394 474.3 130.928 475.467 132.033C476.625 133.138 478.193 133.804 479.908 133.804C483.537 133.804 486.455 130.809 486.364 127.184L486.181 119.971L485.871 107.982L472.521 109.461Z" fill="#FFDFC8"/>
<path d="M472.521 109.461L473.251 122.811C479.515 123.066 484.093 120.51 486.19 117.113L485.88 107.982L472.521 109.461Z" fill="#DA9F74"/>
<path d="M467.543 98.4854C467.543 98.4854 467.078 103.106 467.725 108.21C468.473 114.118 469.129 120.884 476.908 121.523C486.172 122.281 489.263 111.616 489.263 111.616C489.263 111.616 493.567 110.611 494.096 107.671C494.625 104.722 491.415 103.836 490.294 104.768C490.294 104.768 489.017 92.3311 477.546 92.3311C467.406 92.3311 467.543 98.4854 467.543 98.4854Z" fill="#FFDFC8"/>
<path d="M493.257 130.7C493.257 130.709 493.257 130.709 493.257 130.7C485.415 140.269 476.169 139.822 476.169 139.822C468.874 138.224 466.64 129.558 466.64 129.558C467.361 129.284 468.072 129.001 468.756 128.737C472.057 127.458 474.838 126.399 474.838 126.399H481.722C481.722 126.399 486.464 127.97 491.333 129.915C491.972 130.17 492.619 130.435 493.257 130.7Z" fill="#FFB700"/>
<path d="M491.333 129.915C483.336 138.616 476.406 137.703 476.406 137.703C468.956 134.845 468.755 128.737 468.755 128.737C472.056 127.458 474.838 126.399 474.838 126.399H481.722C481.722 126.399 486.464 127.97 491.333 129.915Z" fill="#FCDDC6"/>
<path d="M471.537 89.6465C471.537 89.6465 472.604 98.6406 466.832 101.608C466.832 101.608 463.941 90.7148 471.537 89.6465Z" fill="#D38D00"/>
<path d="M469.786 90.5048C469.786 90.5048 471.838 98.3393 476.926 98.7958C482.014 99.2524 481.111 103.38 485.616 103.854C488.297 104.138 489.491 106.932 489.491 106.932C489.491 106.932 489.883 104.156 492.309 103.17C494.753 102.183 486.573 81.4468 469.786 90.5048Z" fill="#D38D00"/>
<path d="M478.421 109.36C478.421 109.853 478.813 110.246 479.306 110.246C479.798 110.246 480.19 109.853 480.19 109.36C480.19 108.867 479.798 108.475 479.306 108.475C478.822 108.475 478.421 108.877 478.421 109.36Z" fill="#60423D"/>
<path d="M470.416 109.36C470.416 109.853 470.808 110.245 471.3 110.245C471.793 110.245 472.185 109.853 472.185 109.36C472.185 108.867 471.784 108.474 471.3 108.474C470.808 108.474 470.416 108.876 470.416 109.36Z" fill="#60423D"/>
<path d="M482.533 106.274C482.533 106.274 481.22 104.11 478.421 104.886" stroke="#561E15" stroke-miterlimit="10" stroke-linecap="round" stroke-linejoin="round"/>
<path d="M473.606 104.859C473.606 104.859 471.582 103.015 469.604 105.032" stroke="#561E15" stroke-miterlimit="10" stroke-linecap="round" stroke-linejoin="round"/>
<path d="M475.375 107.059C475.375 107.059 474.418 109.506 473.606 111.031C472.795 112.556 475.202 113.232 475.202 113.232" stroke="#DA9F74" stroke-width="0.75" stroke-miterlimit="10" stroke-linecap="round" stroke-linejoin="round"/>
<path d="M480.682 114.967C480.682 114.967 479.123 117.24 476.406 116.592" stroke="#DA9F74" stroke-width="0.75" stroke-miterlimit="10" stroke-linecap="round" stroke-linejoin="round"/>
<path d="M490.266 108.739C490.266 108.739 490.294 105.982 492.345 106.74" stroke="#DA9F74" stroke-width="0.75" stroke-miterlimit="10" stroke-linecap="round" stroke-linejoin="round"/>
<path d="M458.488 180.409H423.473C422.78 180.409 422.215 179.843 422.215 179.149C422.215 178.455 422.78 177.889 423.473 177.889H458.488C459.181 177.889 459.747 178.455 459.747 179.149C459.738 179.852 459.181 180.409 458.488 180.409Z" fill="#04D361"/>
<path d="M419.535 150.622L419.535 150.622L419.535 150.62C419.323 149.777 419.968 148.951 420.837 148.951H452.378C452.998 148.951 453.534 149.371 453.68 149.966L453.68 149.968L460.475 177.398H426.171L419.535 150.622Z" fill="#FFB700" stroke="#FFB700"/>
<path d="M458.689 177.898H423.354L416.625 150.742C416.333 149.583 417.218 148.451 418.412 148.451H449.953C450.801 148.451 451.54 149.026 451.74 149.848L458.689 177.898Z" fill="white"/>
<path d="M485.588 180.409H459.09C458.442 180.409 457.914 179.88 457.914 179.231V179.076C457.914 178.428 458.442 177.898 459.09 177.898H485.588C486.236 177.898 486.765 178.428 486.765 179.076V179.231C486.774 179.889 486.245 180.409 485.588 180.409Z" fill="#04D361"/>
<path d="M438.48 161.632L438.48 161.633C439.072 163.168 438.519 164.577 437.571 164.95C436.628 165.312 435.274 164.639 434.681 163.1C434.088 161.561 434.645 160.147 435.589 159.783C436.533 159.419 437.888 160.086 438.48 161.632Z" fill="#FFB700" stroke="#FFB700"/>
<path d="M497.862 177.898L495.564 148.076L499.978 160.631L497.862 177.898Z" fill="#FF6400"/>
<path d="M498.163 151.108C498.163 151.108 503.616 180.455 504.965 185.258C505.841 188.363 512.206 190.481 514.203 186.372C514.64 185.468 514.54 183.961 514.494 182.427C514.184 172.94 507.555 148.798 507.555 148.798L498.163 151.108Z" fill="#FCDDC6"/>
<path d="M499.658 133.823C499.658 133.823 502.914 135.494 505.649 140.214C508.385 144.935 512.16 153.263 511.923 155.281C510.5 159.161 499.266 163.179 499.266 163.179C499.266 163.179 491.762 138.479 499.658 133.823Z" fill="#FF4F00"/>
<path d="M505.959 179.587C505.959 179.587 488.643 179.204 485.36 177.25C480.911 174.593 479.88 175.743 477.3 175.104C473.16 174.072 473.616 174.912 473.616 174.912C473.616 174.912 473.807 177.314 477.008 177.615C478.622 177.77 481.038 178.455 480.528 178.848C480.528 178.848 467.689 180.19 465.108 180.418C462.528 180.647 463.786 182.637 465.756 183.094C465.756 183.094 466.932 184.582 468.838 184.126C468.838 184.126 468.418 184.966 473.36 184.966C478.303 184.966 483.263 182.336 485.771 183.477C488.278 184.619 501.82 189.869 510.409 188.655C514.513 188.07 514.54 186.098 514.54 184.016C514.54 180.409 511.877 179.953 505.959 179.587Z" fill="#FCDDC6"/>
<path d="M146.705 318.882L140.988 342.54H130.912L133.338 318.882H146.705Z" fill="#BC8567"/>
<path d="M129.818 337.591C129.818 337.591 125.441 344.668 128.724 345.928C132.007 347.188 153.618 347.298 158.952 346.503C164.286 345.7 147.052 338.386 143.113 337.235C139.174 336.085 137.897 342.084 129.818 337.591Z" fill="#FF4F00"/>
<path d="M114.973 318.882L111.517 342.54H101.441L101.605 318.882H114.973Z" fill="#BC8567"/>
<path d="M100.347 337.591C100.347 337.591 95.9701 344.668 99.2528 345.928C102.535 347.188 124.146 347.298 129.481 346.503C134.815 345.7 117.581 338.386 113.642 337.235C109.703 336.085 108.426 342.084 100.347 337.591Z" fill="#FF4F00"/>
<path d="M98.04 204.461L98.7877 330.707H114.782L126.08 237.953L138.955 275.591L129.317 330.716H146.715C146.715 330.716 162.007 283.079 161.387 273.729C160.767 264.369 143.113 200.616 143.113 200.616L98.04 204.461Z" fill="#D8D8E3"/>
<path d="M128.944 244.815L126.579 237.894L127.681 226.693L128.944 244.815Z" fill="#C9C9D4" stroke="#C9C9D4"/>
<path d="M107.068 202.936L106.146 330.716" stroke="#C9C9D4" stroke-miterlimit="10"/>
<path d="M156.043 146.643C156.043 146.643 166.374 166.21 166.602 172.219C166.83 178.227 160.219 176.885 156.8 171.47C153.381 166.046 147.909 150.669 147.909 150.669L156.043 146.643Z" fill="#BC8567"/>
<path d="M157.976 148.277C157.976 148.277 155.013 153.555 147.909 156.778C146.441 157.445 145.201 155.682 144.28 153.591C143.213 151.153 142.593 148.277 142.593 148.277C142.593 148.277 134.45 123.048 141.627 123.952C141.627 123.952 147.736 124.381 152.222 133.238C153.399 135.548 155.232 140.205 156.764 144.625C157.201 145.885 157.612 147.117 157.976 148.277Z" fill="#FF6400"/>
<path d="M157.976 148.277C157.976 148.277 155.013 153.555 147.909 156.778C146.441 157.445 145.201 155.682 144.28 153.591C147.061 152.34 152.323 149.528 156.764 144.625C157.201 145.885 157.612 147.117 157.976 148.277Z" fill="#FFB700"/>
<path d="M143.478 201.995C138.964 207.127 109.247 206.369 98.0308 204.46C96.0612 204.123 94.1189 203.365 97.2283 196.498C98.3955 193.932 97.894 187.331 97.6934 178.254C97.3013 160.312 91.9852 130.544 98.5414 127.129C102.472 125.075 110.815 122.372 116.879 120.528C117.244 120.427 117.599 120.318 117.946 120.208C121.484 119.149 124.01 118.446 124.01 118.446C124.01 118.446 126.937 118.875 132.891 120.637C133.21 120.729 133.557 120.838 133.903 120.939C135.453 121.413 137.177 121.961 139.101 122.619C142.83 123.888 145.566 124.664 146.232 125.906C148.01 129.166 147.326 134.946 147.435 143.273C147.581 153.728 147.472 197.466 143.478 201.995Z" fill="#FF4F00"/>
<path d="M96.2983 157.938L102.709 142.287L98.0399 182.546L96.2983 157.938Z" fill="#FF6400"/>
<path d="M133.903 120.948C133.766 123.158 132.773 125.102 131.277 126.527C129.745 127.988 127.675 128.874 125.423 128.874C120.763 128.874 116.988 125.139 116.897 120.519C117.262 120.418 117.617 120.309 117.964 120.199C121.502 119.14 124.028 118.437 124.028 118.437C124.028 118.437 126.955 118.866 132.909 120.628C133.219 120.747 133.557 120.847 133.903 120.948Z" fill="#FFB700"/>
<path d="M137.789 86.5C137.789 86.5 134.413 83.2688 129.304 82.5C121.83 81.3755 111.991 83.8104 110.031 95.2347C108.481 101.818 116.496 112.639 119.523 112.008C119.523 112.008 146.774 94.7347 137.789 86.5Z" fill="#43302D"/>
<path d="M132.882 102.329L132.153 116.501L131.943 120.546C131.861 122.263 131.104 123.797 129.937 124.901C128.779 126.006 127.21 126.673 125.496 126.673C121.867 126.673 118.949 123.678 119.04 120.053L119.222 112.839L119.532 100.85L132.882 102.329Z" fill="#BC8567"/>
<path d="M132.882 105.151L132.153 118.501C125.888 118.756 121.311 116.2 119.213 112.803L119.523 103.672L132.882 105.151Z" fill="#765441"/>
<path d="M137.852 94.1755C137.852 94.1755 138.317 98.7958 137.669 103.9C136.922 109.808 137.186 116.747 128.487 117.213C119.204 117.706 116.131 107.306 116.131 107.306C116.131 107.306 111.198 106.384 110.861 103.051C110.523 99.718 113.97 99.5263 115.092 100.458C115.092 100.458 116.368 88.0211 127.839 88.0211C137.988 88.0302 137.852 94.1755 137.852 94.1755Z" fill="#BC8567"/>
<path d="M127.237 103.106C127.237 103.617 126.827 104.028 126.317 104.028C125.806 104.028 125.396 103.617 125.396 103.106C125.396 102.594 125.806 102.183 126.317 102.183C126.818 102.183 127.237 102.594 127.237 103.106Z" fill="#60423D"/>
<path d="M136.11 102.631C136.11 103.142 135.699 103.553 135.189 103.553C134.678 103.553 134.268 103.142 134.268 102.631C134.268 102.12 134.678 101.709 135.189 101.709C135.699 101.709 136.11 102.12 136.11 102.631Z" fill="#60423D"/>
<path d="M122.687 100.467C122.687 100.467 124.046 98.2207 126.954 99.0332" stroke="#43302D" stroke-miterlimit="10" stroke-linecap="round" stroke-linejoin="round"/>
<path d="M131.952 98.9966C131.952 98.9966 134.049 97.0794 136.109 99.1792" stroke="#43302D" stroke-miterlimit="10" stroke-linecap="round" stroke-linejoin="round"/>
<path d="M130.119 101.28C130.119 101.28 131.113 103.818 131.961 105.407C132.809 106.986 130.301 107.69 130.301 107.69" stroke="#765441" stroke-width="0.75" stroke-miterlimit="10" stroke-linecap="round" stroke-linejoin="round"/>
<path d="M126.782 110.529C126.782 110.529 128.833 112.52 131.468 111.305" stroke="#765441" stroke-width="0.75" stroke-miterlimit="10" stroke-linecap="round" stroke-linejoin="round"/>
<path d="M114.945 104.127C114.945 104.127 114.918 101.27 112.785 102.046" stroke="#765441" stroke-width="0.75" stroke-miterlimit="10" stroke-linecap="round" stroke-linejoin="round"/>
<path d="M117.763 90.8335C117.763 90.8335 122.979 96.1569 120.125 98.1931C116.952 100.458 116.45 103.672 116.45 103.672C116.45 103.672 116.514 102.54 115.101 100.467C113.687 98.394 110.605 91.0344 117.763 90.8335Z" fill="#43302D"/>
<path d="M89.2041 147.693C89.2041 147.693 78.8727 167.26 78.6448 173.269C78.4168 179.277 85.0278 177.935 88.4472 172.52C91.8667 167.096 97.3379 151.719 97.3379 151.719L89.2041 147.693Z" fill="#BC8567"/>
<path d="M162.873 165.598C162.873 165.598 147.472 154.185 146.596 153.536C145.11 152.422 142.94 150.806 142.156 150.258C140.915 149.391 133.666 148.131 132.654 148.295C131.651 148.459 128.87 148.934 128.058 149.235C127.247 149.537 128.268 150.578 129.07 151.071C129.873 151.564 133.429 153.408 136.447 153.965C138.125 154.276 139.566 155.125 140.742 155.974C141.681 156.65 157.931 173.241 158.542 173.643L162.873 165.598Z" fill="#BC8567"/>
<path d="M143.806 151.592C143.806 151.592 138.007 146.159 137.14 146.241C136.283 146.323 136.894 147.547 139.174 149.4C139.949 150.03 140.779 151.025 141.472 151.354C142.83 151.993 143.806 151.592 143.806 151.592Z" fill="#BC8567"/>
<path d="M139.133 171.165L139.135 171.165C139.648 171.106 140.073 170.736 140.204 170.23L140.204 170.23L145.255 150.781C145.255 150.781 145.255 150.781 145.255 150.781C145.255 150.781 145.255 150.781 145.255 150.781C145.477 149.926 144.765 149.107 143.884 149.212C143.883 149.212 143.883 149.212 143.883 149.212L122.738 151.741L122.735 151.741L122.735 151.741C122.223 151.8 121.798 152.17 121.667 152.676L121.667 152.676L116.615 172.125C116.394 172.98 117.105 173.799 117.987 173.695L139.133 171.165ZM139.133 171.165L117.987 173.694L139.133 171.165Z" fill="#FFB700" stroke="#FFB700"/>
<path d="M140.132 172.31L118.986 174.839C117.755 174.985 116.761 173.844 117.071 172.648L122.123 153.199C122.305 152.495 122.898 151.975 123.618 151.893L144.764 149.363C145.995 149.217 146.989 150.359 146.679 151.555L141.627 171.004C141.445 171.698 140.852 172.219 140.132 172.31Z" fill="white"/>
<path d="M123.863 157.108L123.863 157.108L123.862 157.113C123.861 157.117 123.857 157.126 123.845 157.136C123.833 157.147 123.818 157.155 123.8 157.159L122.794 157.276L122.794 157.276C122.773 157.278 122.754 157.272 122.739 157.254C122.723 157.236 122.719 157.217 122.724 157.196L122.724 157.195L123.718 153.379L123.718 153.379L123.721 153.37C123.725 153.351 123.742 153.333 123.768 153.33L124.787 153.211L124.787 153.211C124.808 153.209 124.827 153.216 124.842 153.234C124.858 153.251 124.862 153.271 124.857 153.291L124.857 153.292L123.863 157.108ZM124.347 157.234L125.34 153.418L123.873 157.654C124.1 157.617 124.292 157.453 124.347 157.234Z" fill="#FFB700" stroke="#FFB700"/>
<path d="M82.593 167.48C89.049 167.735 109.228 167.315 111.9 166.402C113.049 166.01 115.876 165.416 116.596 164.293C117.326 163.152 117.946 161.417 118.703 161.289C119.286 161.188 119.149 163.069 118.976 163.754C118.648 164.987 118.429 165.626 117.991 166.192C117.845 166.384 122.815 167.096 125.934 166.302C128.076 165.754 127.675 167.471 126.235 168.192C126.235 168.192 126.809 169.689 125.295 170.182C125.295 170.182 125.56 171.844 124.101 171.972C123.946 172.383 123.49 173.123 122.231 173.479C120.408 173.99 117.244 173.981 114.836 174.081C113.414 174.136 85.9213 178.437 81.0611 177.213C79.0368 176.702 80.4957 167.397 82.593 167.48Z" fill="#BC8567"/>
<path d="M101.122 150.322C101.122 150.322 100.648 152.121 99.9457 153.975C99.1615 156.02 98.0946 158.12 97.046 157.929C97.046 157.929 82.7845 153.418 83.2587 151.957C83.6143 150.87 84.2253 149.455 84.9821 147.884C87.3438 142.972 91.0915 136.562 92.6052 134.078C97.7663 125.595 99.8819 126.673 99.8819 126.673C107.113 126.326 101.122 150.322 101.122 150.322Z" fill="#FF4F00"/>
<path d="M99.9457 153.975C99.1615 156.02 98.0946 158.12 97.046 157.929C97.046 157.929 82.7845 153.418 83.2587 151.957C83.6143 150.87 84.2253 149.455 84.9821 147.884C87.6083 149.126 94.6934 152.386 99.9457 153.975Z" fill="#FFB700"/>
<path d="M104.469 193.96C104.469 193.96 128.177 190.152 140.943 182.546C140.943 182.546 126.663 196.854 104.469 193.96Z" fill="#FF6400"/>
<path d="M400.148 284.439H338.497C335.46 284.439 333.008 281.974 333.008 278.943V249.111C333.008 246.071 335.47 243.615 338.497 243.615H400.148C403.184 243.615 405.637 246.08 405.637 249.111V278.933C405.646 281.974 403.184 284.439 400.148 284.439Z" fill="#FF4F00"/>
<path d="M339.545 273.893C345.29 273.893 345.29 267.045 351.035 267.045C356.779 267.045 356.779 257.914 362.524 257.914C368.269 257.914 368.269 261.411 374.013 261.411C379.758 261.411 379.758 252.965 385.503 252.965C391.247 252.965 391.247 266.214 396.992 266.214" stroke="white" stroke-width="2" stroke-miterlimit="10" stroke-linecap="round" stroke-linejoin="round"/>
<path d="M341.223 273.893C341.223 272.971 340.475 272.222 339.554 272.222C338.633 272.222 337.886 272.971 337.886 273.893C337.886 274.815 338.633 275.564 339.554 275.564C340.475 275.564 341.223 274.815 341.223 273.893Z" fill="white"/>
<path d="M398.67 266.223C398.67 265.301 397.922 264.552 397.001 264.552C396.08 264.552 395.333 265.301 395.333 266.223C395.333 267.145 396.08 267.893 397.001 267.893C397.922 267.893 398.67 267.145 398.67 266.223Z" fill="white"/>
<path d="M43.6203 69.0468H105.198C109.32 69.0468 112.666 65.6957 112.666 61.5685V42.7493C112.666 38.6221 109.32 35.271 105.198 35.271H43.6203C39.4987 35.271 36.1522 38.6221 36.1522 42.7493V61.5685C36.1522 65.7048 39.4987 69.0468 43.6203 69.0468Z" fill="#FF4F00"/>
<path d="M103.493 67.111V75.3107L94.7116 66.5266L103.493 67.111Z" fill="#FF4F00"/>
<path d="M43.2281 43.562H60.2981" stroke="white" stroke-width="2.2165" stroke-miterlimit="10" stroke-linecap="round" stroke-linejoin="round"/>
<path d="M66.3802 43.562H105.59" stroke="white" stroke-width="2.2165" stroke-miterlimit="10" stroke-linecap="round" stroke-linejoin="round"/>
<path d="M43.2281 52.1635H75.052" stroke="white" stroke-width="2.2165" stroke-miterlimit="10" stroke-linecap="round" stroke-linejoin="round"/>
<path d="M79.9214 52.1635H89.3409" stroke="white" stroke-width="2.2165" stroke-miterlimit="10" stroke-linecap="round" stroke-linejoin="round"/>
<path d="M94.3925 52.1635H105.59" stroke="white" stroke-width="2.2165" stroke-miterlimit="10" stroke-linecap="round" stroke-linejoin="round"/>
<path d="M43.2281 60.7559H50.4318" stroke="white" stroke-width="2.2165" stroke-miterlimit="10" stroke-linecap="round" stroke-linejoin="round"/>
<path d="M54.8452 60.7559H80.8331" stroke="white" stroke-width="2.2165" stroke-miterlimit="10" stroke-linecap="round" stroke-linejoin="round"/>
<path d="M426.892 38.5514H411.09C408.153 38.5514 405.773 36.1682 405.773 33.228V17.4039C405.773 14.4637 408.153 12.0804 411.09 12.0804H426.892C429.828 12.0804 432.208 14.4637 432.208 17.4039V33.228C432.208 36.1682 429.828 38.5514 426.892 38.5514Z" fill="#FF4F00"/>
<path d="M427.986 23.9501L427.594 22.2152C427.521 21.8774 427.174 21.6674 426.837 21.7404L425.815 21.9778C425.551 22.0417 425.287 21.9139 425.141 21.6856C424.739 21.0556 424.247 20.4895 423.682 20.0146C423.454 19.8229 423.381 19.5124 423.508 19.2476L424.019 18.1976C424.174 17.8871 424.037 17.5036 423.727 17.3575L422.122 16.5814C421.812 16.4261 421.429 16.5631 421.283 16.8736L420.736 18.0149C420.618 18.2706 420.335 18.3984 420.062 18.3619C419.724 18.3163 419.369 18.2889 419.022 18.2889C418.666 18.2889 418.32 18.3163 417.983 18.3619C417.7 18.3984 417.426 18.2706 417.308 18.0149L416.761 16.8736C416.606 16.5631 416.232 16.4261 415.922 16.5814L414.317 17.3575C414.007 17.5127 413.87 17.8871 414.025 18.1976L414.536 19.2476C414.663 19.5124 414.581 19.8229 414.363 20.0146C413.797 20.4986 413.296 21.0556 412.904 21.6856C412.758 21.9139 412.493 22.0417 412.229 21.9778L411.207 21.7404C410.87 21.6674 410.533 21.8774 410.451 22.2152L410.059 23.9501C409.986 24.288 410.195 24.6258 410.533 24.708L411.828 25.0002C411.818 25.1828 411.8 25.3563 411.8 25.5389C411.8 26.4064 411.955 27.2464 412.238 28.0135C412.329 28.2691 412.265 28.5613 412.046 28.7348L411.545 29.1366C411.271 29.3557 411.226 29.7484 411.445 30.0223L412.502 31.4193C412.721 31.6933 413.113 31.7389 413.387 31.5198L413.733 31.2367C413.97 31.0541 414.299 31.0632 414.527 31.2459C415.256 31.812 416.086 32.2503 416.998 32.5151C417.271 32.5973 417.472 32.8347 417.472 33.1269V33.4921C417.472 33.8391 417.755 34.1221 418.101 34.1221H419.879C420.226 34.1221 420.508 33.8391 420.508 33.4921V33.1269C420.508 32.8347 420.709 32.5973 420.983 32.5151C421.894 32.2503 422.724 31.8211 423.454 31.2459C423.691 31.0632 424.019 31.045 424.247 31.2367L424.594 31.5198C424.867 31.7389 425.259 31.6933 425.478 31.4193L426.591 30.0314C426.809 29.7575 426.764 29.3649 426.49 29.1457L425.989 28.7439C425.77 28.5705 425.706 28.2783 425.797 28.0226C426.08 27.2464 426.235 26.4155 426.235 25.5481C426.235 25.3654 426.217 25.192 426.208 25.0093L427.502 24.7171C427.849 24.6258 428.059 24.288 427.986 23.9501ZM418.995 30.0497C416.505 30.0497 414.49 28.0317 414.49 25.5389C414.49 23.0462 416.505 21.0282 418.995 21.0282C421.484 21.0282 423.499 23.0462 423.499 25.5389C423.499 28.0317 421.484 30.0497 418.995 30.0497Z" fill="white"/>
<path d="M567.142 143.35C568.761 133.369 561.993 123.966 552.026 122.348C542.059 120.73 532.666 127.509 531.047 137.489C529.428 147.469 536.196 156.872 546.163 158.49C556.13 160.109 565.523 153.33 567.142 143.35Z" fill="#FF4F00"/>
<path d="M559.102 142.823C560.407 137.292 556.987 131.751 551.463 130.446C545.94 129.141 540.404 132.567 539.098 138.097C537.793 143.628 541.212 149.17 546.736 150.475C552.26 151.78 557.796 148.354 559.102 142.823Z" fill="#FF4F00" stroke="white" stroke-width="2" stroke-miterlimit="10" stroke-linecap="round" stroke-linejoin="round"/>
<path d="M549.081 133.695V140.424L545.534 143.976" fill="#FF4F00"/>
<path d="M549.081 133.695V140.424L545.534 143.976" stroke="white" stroke-width="2" stroke-miterlimit="10" stroke-linecap="round" stroke-linejoin="round"/>
<path d="M549.081 130.134V131.12" stroke="white" stroke-width="2" stroke-miterlimit="10" stroke-linecap="round" stroke-linejoin="round"/>
<path d="M549.081 149.738V150.715" stroke="white" stroke-width="2" stroke-miterlimit="10" stroke-linecap="round" stroke-linejoin="round"/>
<path d="M559.358 140.424H558.373" stroke="white" stroke-width="2" stroke-miterlimit="10" stroke-linecap="round" stroke-linejoin="round"/>
<path d="M539.79 140.424H538.804" stroke="white" stroke-width="2" stroke-miterlimit="10" stroke-linecap="round" stroke-linejoin="round"/>
</g>
<defs>
<filter id="filter0_d" x="0" y="0" width="607" height="359.017" filterUnits="userSpaceOnUse" color-interpolation-filters="sRGB">
<feFlood flood-opacity="0" result="BackgroundImageFix"/>
<feColorMatrix in="SourceAlpha" type="matrix" values="0 0 0 0 0 0 0 0 0 0 0 0 0 0 0 0 0 0 127 0"/>
<feOffset dy="4"/>
<feGaussianBlur stdDeviation="2"/>
<feColorMatrix type="matrix" values="0 0 0 0 0 0 0 0 0 0 0 0 0 0 0 0 0 0 0.25 0"/>
<feBlend mode="normal" in2="BackgroundImageFix" result="effect1_dropShadow"/>
<feBlend mode="normal" in="SourceGraphic" in2="effect1_dropShadow" result="shape"/>
</filter>
</defs>
</svg>
